<svg xmlns="http://www.w3.org/2000/svg" width="148" height="169" viewBox="0 0 148 169" fill="none"><path d="M0 137.639C21.2076 134.875 46.4732 133.243 73.6016 133.221C100.73 133.199 125.998 134.743 147.214 137.455C127.858 132.103 101.999 128.839 73.5961 128.875C45.1929 128.911 19.3421 132.232 0 137.639Z" fill="#004E9A"></path><mask id="mask0_42_116" style="mask-type:luminance" maskUnits="userSpaceOnUse" x="0" y="128" width="148" height="10"><path d="M0 137.639C21.2076 134.875 46.4732 133.243 73.6016 133.221C100.73 133.199 125.998 134.743 147.214 137.455C127.858 132.103 101.999 128.839 73.5961 128.875C45.1929 128.911 19.3421 132.232 0 137.639Z" fill="white"></path></mask><g mask="url(#mask0_42_116)"><path d="M146.964 129.062H-0.250031V137.735H146.964V129.062Z" fill="#004E9A"></path></g><path d="M79.515 70.2178L67.5251 70.2324L67.592 124.978L79.5819 124.964L79.515 70.2178Z" fill="#004E9A"></path><mask id="mask1_42_116" style="mask-type:luminance" maskUnits="userSpaceOnUse" x="67" y="70" width="13" height="55"><path d="M79.515 70.2178L67.5251 70.2324L67.592 124.978L79.5819 124.964L79.515 70.2178Z" fill="white"></path></mask><g mask="url(#mask1_42_116)"><path d="M79.515 70.2178L67.5251 70.2324L67.592 124.978L79.5819 124.964L79.515 70.2178Z" fill="#004E9A"></path></g><path d="M103.543 0.0192342C103.543 0.0192342 101.2 20.801 84.6024 27.9004L84.7233 124.886L84.9568 124.905C97.0456 125.133 108.681 125.746 119.657 126.693L119.586 70.1453L103.651 70.1673H103.62L90.5259 70.1838V75.2089L103.62 75.1924L103.678 120.924L87.7208 120.943L87.6081 32.2579C87.6081 32.2579 97.5896 30.1671 103.543 23.8589L103.62 65.046L119.578 65.024L119.495 0L103.543 0.0192342Z" fill="#004E9A"></path><mask id="mask2_42_116" style="mask-type:luminance" maskUnits="userSpaceOnUse" x="84" y="0" width="36" height="127"><path d="M103.543 0.0192342C103.543 0.0192342 101.2 20.801 84.6024 27.9004L84.7233 124.886L84.9568 124.905C97.0456 125.133 108.681 125.746 119.657 126.693L119.586 70.1453L103.651 70.1673H103.62L90.5259 70.1838V75.2089L103.62 75.1924L103.678 120.924L87.7208 120.943L87.6081 32.2579C87.6081 32.2579 97.5896 30.1671 103.543 23.8589L103.62 65.046L119.578 65.024L119.495 0L103.543 0.0192342Z" fill="white"></path></mask><g mask="url(#mask2_42_116)"><path d="M119.418 0.241821H84.487V126.949H119.418V0.241821Z" fill="#004E9A"></path></g><path d="M43.5829 97.0484L59.5401 97.0292L59.5703 120.99L43.6131 121.009L43.5829 97.0484ZM43.5417 64.9032C49.5256 71.1976 59.5099 73.2637 59.5099 73.2637L59.5346 93.452L43.5801 93.4712L43.5417 64.9032ZM27.4196 40.2063L27.5295 126.834C38.5028 125.858 50.1356 125.215 62.2244 124.957L62.4579 124.938L62.3865 68.0216C45.7726 60.9633 43.3741 40.1843 43.3741 40.1843L27.4196 40.2063Z" fill="#004E9A"></path><mask id="mask3_42_116" style="mask-type:luminance" maskUnits="userSpaceOnUse" x="27" y="40" width="36" height="87"><path d="M43.5829 97.0484L59.5401 97.0292L59.5703 120.99L43.6131 121.009L43.5829 97.0484ZM43.5417 64.9032C49.5256 71.1976 59.5099 73.2637 59.5099 73.2637L59.5346 93.452L43.5801 93.4712L43.5417 64.9032ZM27.4196 40.2063L27.5295 126.834C38.5028 125.858 50.1356 125.215 62.2244 124.957L62.4579 124.938L62.3865 68.0216C45.7726 60.9633 43.3741 40.1843 43.3741 40.1843L27.4196 40.2063Z" fill="white"></path></mask><g mask="url(#mask3_42_116)"><path d="M62.2216 40.3217H27.2905V126.952H62.2216V40.3217Z" fill="#004E9A"></path></g><path d="M3.20354 156.259C3.34701 156.26 3.488 156.221 3.61016 156.146C3.63546 156.12 3.65529 156.089 3.66849 156.055C3.6817 156.021 3.68802 155.985 3.68708 155.948V147.885C3.68802 147.848 3.6817 147.812 3.66849 147.778C3.65529 147.744 3.63546 147.713 3.61016 147.687C3.4872 147.613 3.34674 147.574 3.20354 147.574V147.368H6.77523V147.574C6.63195 147.574 6.49134 147.613 6.3686 147.687C6.34297 147.713 6.32294 147.745 6.30973 147.779C6.29651 147.814 6.29037 147.85 6.29168 147.887L6.30541 155.948C6.30349 155.985 6.30935 156.021 6.32261 156.056C6.33588 156.09 6.35623 156.121 6.38234 156.146C6.50449 156.221 6.6455 156.26 6.78896 156.259V156.468H3.21727L3.20354 156.259Z" fill="#004E9A"></path><path d="M10.2068 147.874C10.2077 147.837 10.2014 147.801 10.1882 147.767C10.175 147.733 10.1552 147.702 10.1299 147.676C10.0069 147.602 9.86644 147.563 9.72324 147.563V147.357H13.8911V147.566C13.758 147.564 13.626 147.59 13.5037 147.643C13.4759 147.657 13.4522 147.678 13.4353 147.704C13.4184 147.73 13.4088 147.76 13.4076 147.791C13.4689 147.904 13.5447 148.008 13.6329 148.102C13.784 148.286 13.979 148.516 14.2236 148.794C14.4681 149.071 14.7401 149.376 15.0478 149.717C15.3555 150.058 15.6632 150.396 15.9764 150.736C16.2897 151.077 16.5891 151.399 16.8776 151.704L17.6222 152.489V147.871C17.6222 147.673 17.5013 147.571 17.2595 147.56V147.352H20.4246V147.56C20.2811 147.559 20.1401 147.598 20.018 147.673C19.9927 147.699 19.9728 147.73 19.9596 147.764C19.9464 147.798 19.9401 147.834 19.941 147.871V155.932C19.9397 155.969 19.9459 156.006 19.9591 156.04C19.9723 156.074 19.9923 156.106 20.018 156.132C20.1417 156.206 20.2833 156.244 20.4273 156.242V156.451H17.1304V156.245C17.2404 156.254 17.3509 156.235 17.4518 156.19C17.4755 156.176 17.495 156.156 17.5084 156.132C17.5219 156.108 17.5289 156.08 17.5288 156.053C17.5227 156.006 17.5048 155.961 17.4766 155.924C17.4065 155.828 17.3313 155.736 17.2513 155.649C17.1359 155.523 16.9655 155.339 16.7402 155.099C16.5149 154.866 16.2155 154.55 15.8473 154.152C15.4792 153.753 15.0231 153.259 14.4736 152.665C13.9241 152.072 13.2757 151.349 12.5147 150.497V155.929C12.5137 155.966 12.5203 156.003 12.534 156.038C12.5477 156.072 12.5682 156.103 12.5943 156.13C12.7173 156.203 12.8579 156.241 13.001 156.24V156.448H9.70401V156.24C9.84748 156.241 9.98847 156.202 10.1106 156.127C10.1359 156.101 10.1558 156.07 10.169 156.036C10.1822 156.002 10.1885 155.966 10.1876 155.929L10.2068 147.874Z" fill="#004E9A"></path><path d="M25.2958 156.22C25.4393 156.222 25.5803 156.183 25.7024 156.108C25.7277 156.082 25.7476 156.051 25.7608 156.017C25.774 155.983 25.7803 155.946 25.7794 155.91V149.44H22.8039C22.7638 149.437 22.7235 149.444 22.687 149.461C22.6504 149.477 22.6188 149.503 22.5951 149.536C22.5337 149.656 22.499 149.788 22.4934 149.923H22.2846V146.846H22.4934C22.4982 146.981 22.5339 147.114 22.5978 147.233C22.6219 147.266 22.6536 147.291 22.6901 147.308C22.7265 147.325 22.7666 147.332 22.8066 147.33L31.3512 147.313C31.3913 147.316 31.4316 147.309 31.4681 147.292C31.5046 147.275 31.5363 147.249 31.56 147.217C31.6214 147.097 31.6561 146.965 31.6617 146.83H31.8705V149.907H31.6617C31.6558 149.771 31.6202 149.637 31.5573 149.517C31.5332 149.485 31.5015 149.459 31.465 149.442C31.4286 149.425 31.3885 149.418 31.3485 149.42H28.373V155.891C28.372 155.928 28.3786 155.965 28.3923 155.999C28.406 156.034 28.4265 156.065 28.4526 156.091C28.5758 156.164 28.7163 156.202 28.8593 156.201V156.41H25.2876L25.2958 156.22Z" fill="#004E9A"></path><path d="M40.5827 153.08C40.5618 152.976 40.5101 152.88 40.4343 152.805C40.3831 152.763 40.3239 152.731 40.2602 152.712C40.1965 152.692 40.1296 152.686 40.0634 152.693H36.8461V154.303H42.3987C42.4384 154.305 42.478 154.297 42.5139 154.281C42.5499 154.264 42.5811 154.238 42.6048 154.206C42.671 154.075 42.7067 153.93 42.7092 153.783H42.9153V156.742H42.7092C42.7053 156.642 42.6686 156.545 42.6048 156.468C42.5428 156.428 42.4694 156.41 42.396 156.415L33.7635 156.432V156.223C33.907 156.225 34.048 156.186 34.1701 156.11C34.1958 156.084 34.2158 156.052 34.229 156.018C34.2422 155.984 34.2483 155.947 34.247 155.91V147.849C34.248 147.812 34.2417 147.776 34.2285 147.742C34.2152 147.708 34.1954 147.677 34.1701 147.651C34.0472 147.578 33.9067 147.539 33.7635 147.538V147.332L42.396 147.316C42.4357 147.319 42.4755 147.311 42.5115 147.295C42.5476 147.278 42.5788 147.252 42.6021 147.22C42.6648 147.1 42.6995 146.967 42.7037 146.832H42.9015V149.854H42.6927C42.6879 149.719 42.6522 149.587 42.5883 149.467C42.5647 149.435 42.5334 149.41 42.4975 149.393C42.4615 149.376 42.4219 149.369 42.3823 149.371H36.8297V150.786H40.0469C40.1131 150.793 40.18 150.786 40.2437 150.767C40.3074 150.748 40.3666 150.716 40.4178 150.673C40.4918 150.598 40.5424 150.502 40.5634 150.398H40.7723V153.096L40.5827 153.08Z" fill="#004E9A"></path><path d="M48.3964 155.871C48.3955 155.908 48.4018 155.944 48.415 155.978C48.4282 156.012 48.4481 156.043 48.4734 156.069C48.5961 156.143 48.7367 156.182 48.88 156.182V156.388H45.3083V156.182C45.4516 156.182 45.5922 156.143 45.7149 156.069C45.7406 156.043 45.7606 156.011 45.7738 155.977C45.787 155.942 45.7932 155.906 45.7919 155.869V147.808C45.7924 147.771 45.7857 147.735 45.772 147.701C45.7583 147.667 45.738 147.636 45.7122 147.61C45.5911 147.534 45.4509 147.495 45.3083 147.497V147.288H51.6412C52.9233 147.288 53.852 147.521 54.4271 147.986C55.0041 148.45 55.2953 149.176 55.2953 150.154C55.3155 150.497 55.2638 150.841 55.1436 151.163C55.0235 151.485 54.8375 151.779 54.5975 152.025C54.1002 152.494 53.491 152.828 52.8281 152.995L54.8722 155.866C54.9221 155.956 54.9947 156.032 55.0829 156.086C55.171 156.14 55.2717 156.17 55.375 156.174V156.382H51.7786V156.176C52.0313 156.165 52.1577 156.061 52.1577 155.863C52.123 155.776 52.0758 155.695 52.0176 155.621C51.9269 155.484 51.8115 155.316 51.6714 155.121C51.5313 154.926 51.3802 154.715 51.2126 154.489L50.7263 153.841C50.5697 153.635 50.4351 153.451 50.3197 153.292C50.2043 153.132 50.1273 153.017 50.0944 152.965H48.3964V155.871ZM51.2923 151.124C51.8005 151.124 52.1495 151.028 52.339 150.849C52.4296 150.763 52.5017 150.66 52.551 150.545C52.6003 150.431 52.6257 150.307 52.6257 150.183C52.6257 150.058 52.6003 149.935 52.551 149.82C52.5017 149.706 52.4296 149.602 52.339 149.517C52.1495 149.327 51.7896 149.242 51.2923 149.242H48.3854V151.143L51.2923 151.124Z" fill="#004E9A"></path><path d="M58.2351 147.791C58.236 147.755 58.2297 147.719 58.2165 147.685C58.2033 147.651 58.1835 147.62 58.1582 147.593C58.036 147.518 57.895 147.479 57.7515 147.481V147.275H61.9194V147.489C61.7862 147.486 61.6539 147.512 61.532 147.566C61.5045 147.58 61.4812 147.601 61.4643 147.627C61.4474 147.653 61.4376 147.683 61.4359 147.714C61.4984 147.826 61.574 147.931 61.6612 148.025C61.8123 148.209 62.0101 148.44 62.2519 148.714C62.4936 148.989 62.7684 149.3 63.0761 149.64C63.3838 149.981 63.6888 150.319 64.002 150.66C64.3152 151 64.6147 151.322 64.9032 151.627L65.6477 152.412V147.791C65.6477 147.596 65.5268 147.492 65.2851 147.481V147.275H68.4501V147.481C68.3065 147.481 68.1658 147.521 68.0435 147.596C68.0182 147.622 67.9984 147.653 67.9852 147.687C67.972 147.721 67.9656 147.758 67.9666 147.794V155.855C67.9656 155.892 67.9722 155.929 67.9859 155.963C67.9996 155.998 68.0201 156.029 68.0463 156.056C68.1689 156.129 68.3097 156.167 68.4529 156.165V156.374H65.1559V156.165C65.2658 156.176 65.3765 156.158 65.4774 156.113C65.5014 156.099 65.5212 156.079 65.5347 156.055C65.5483 156.031 65.555 156.004 65.5543 155.976C65.5506 155.928 65.5324 155.883 65.5021 155.847C65.4327 155.751 65.3575 155.659 65.2768 155.572C65.1614 155.446 64.9911 155.262 64.7658 155.022C64.5405 154.783 64.2474 154.469 63.8866 154.083C63.5203 153.687 63.0624 153.193 62.5129 152.599C61.9634 152.006 61.3104 151.283 60.5539 150.431V155.863C60.5534 155.9 60.5601 155.936 60.5738 155.97C60.5875 156.004 60.6078 156.035 60.6336 156.061C60.7558 156.136 60.8968 156.175 61.0402 156.174V156.38H57.7433V156.171C57.8868 156.173 58.0278 156.134 58.1499 156.058C58.176 156.032 58.1966 156.001 58.2103 155.966C58.224 155.932 58.2305 155.895 58.2296 155.858L58.2351 147.791Z" fill="#004E9A"></path><path d="M73.2829 155.965C73.2816 155.99 73.2864 156.014 73.2969 156.037C73.3075 156.06 73.3234 156.079 73.3433 156.094C73.422 156.131 73.5094 156.147 73.5961 156.138V156.347H70.5327V156.138C70.6329 156.126 70.7279 156.087 70.8074 156.025C70.8828 155.946 70.9416 155.853 70.9805 155.751C71.0025 155.693 71.0602 155.536 71.1509 155.283C71.2415 155.031 71.3652 154.709 71.5135 154.322C71.6619 153.934 71.8295 153.498 72.0136 153.033C72.1976 152.569 72.379 152.077 72.5631 151.588C72.7471 151.099 72.9285 150.618 73.1125 150.151C73.2966 149.684 73.4477 149.264 73.5851 148.896L73.9203 147.995C74.0082 147.764 74.0494 147.643 74.0494 147.632C74.0494 147.574 74.0137 147.533 73.9368 147.511C73.8604 147.487 73.7823 147.47 73.7032 147.459V147.253H78.2201V147.459C78.1431 147.467 78.0674 147.484 77.9948 147.511C77.9371 147.536 77.9096 147.593 77.9096 147.684C77.9551 147.838 78.0101 147.988 78.0745 148.135C78.1844 148.409 78.3245 148.772 78.5003 149.214C78.6761 149.657 78.874 150.159 79.0992 150.72C79.3245 151.28 79.5581 151.849 79.8026 152.429C80.0471 153.009 80.2807 153.58 80.5059 154.132C80.7312 154.685 80.9373 155.182 81.1214 155.619C81.1801 155.767 81.2597 155.907 81.3576 156.034C81.3893 156.068 81.4281 156.095 81.4712 156.113C81.5144 156.131 81.5609 156.14 81.6077 156.138V156.347H78.2008V156.138C78.4179 156.138 78.5278 156.058 78.5278 155.929C78.5041 155.85 78.4757 155.772 78.4426 155.696C78.3822 155.553 78.319 155.391 78.2503 155.212C78.1816 155.033 78.1129 154.863 78.0497 154.704C78.0043 154.597 77.9667 154.487 77.9371 154.374H73.8379C73.7225 154.685 73.6318 154.937 73.5631 155.135L73.3983 155.602C73.3571 155.718 73.3296 155.8 73.3131 155.852C73.2972 155.888 73.287 155.926 73.2829 155.965ZM77.481 152.984L75.7968 148.863L74.2637 152.984H77.481Z" fill="#004E9A"></path><path d="M84.4238 156.119C84.5673 156.12 84.7083 156.081 84.8304 156.006C84.8562 155.98 84.8766 155.949 84.8903 155.915C84.9039 155.881 84.9107 155.845 84.9101 155.808V149.338H81.9346C81.8952 149.335 81.8558 149.343 81.8198 149.359C81.7839 149.375 81.7525 149.4 81.7286 149.431C81.6661 149.552 81.6304 149.686 81.6242 149.822H81.4181V146.742H81.6242C81.6305 146.878 81.6671 147.011 81.7313 147.132C81.7549 147.164 81.7862 147.189 81.8223 147.205C81.8583 147.221 81.8979 147.228 81.9374 147.225H90.4847C90.5243 147.227 90.5638 147.22 90.5997 147.203C90.6357 147.186 90.6669 147.161 90.6908 147.129C90.7534 147.009 90.789 146.877 90.7952 146.742H90.982V149.822H90.7759C90.7684 149.687 90.7329 149.555 90.6715 149.434C90.6474 149.402 90.6157 149.377 90.5793 149.36C90.5428 149.343 90.5028 149.335 90.4627 149.338H87.4872V155.808C87.4863 155.845 87.4926 155.881 87.5058 155.915C87.519 155.949 87.5389 155.98 87.5642 156.006C87.6874 156.081 87.8292 156.12 87.9735 156.119V156.328H84.4018L84.4238 156.119Z" fill="#004E9A"></path><path d="M93.092 156.105C93.2351 156.103 93.3752 156.065 93.4987 155.992C93.5243 155.966 93.5443 155.934 93.5576 155.9C93.5708 155.865 93.5769 155.829 93.5756 155.792L93.5619 147.731C93.5636 147.694 93.5574 147.657 93.5437 147.623C93.5299 147.589 93.5089 147.558 93.4822 147.533C93.3611 147.458 93.2209 147.419 93.0783 147.42V147.214H96.65V147.423C96.5065 147.421 96.3654 147.46 96.2434 147.536C96.2171 147.561 96.1967 147.592 96.1834 147.626C96.1701 147.66 96.1643 147.697 96.1664 147.734V155.797C96.1655 155.834 96.1718 155.87 96.185 155.904C96.1982 155.938 96.2181 155.969 96.2434 155.995C96.3661 156.069 96.5067 156.108 96.65 156.108V156.314H93.0783L93.092 156.105Z" fill="#004E9A"></path><path d="M104.458 147.088C105.164 147.083 105.867 147.184 106.544 147.387C107.166 147.573 107.747 147.874 108.258 148.275C108.75 148.668 109.15 149.164 109.428 149.728C109.714 150.358 109.861 151.042 109.861 151.734C109.861 152.425 109.714 153.109 109.428 153.739C109.152 154.304 108.754 154.801 108.264 155.196C107.757 155.597 107.175 155.893 106.552 156.064C105.873 156.253 105.171 156.345 104.467 156.339C103.762 156.342 103.061 156.249 102.381 156.064C101.758 155.893 101.175 155.6 100.667 155.201C100.176 154.808 99.7763 154.313 99.4964 153.75C99.2121 153.12 99.065 152.435 99.065 151.743C99.065 151.051 99.2121 150.367 99.4964 149.736C99.7731 149.171 100.171 148.674 100.661 148.28C101.171 147.877 101.751 147.575 102.373 147.387C103.049 147.183 103.752 147.083 104.458 147.088ZM104.458 149.198C104.09 149.198 103.725 149.257 103.376 149.374C103.048 149.482 102.744 149.649 102.477 149.868C102.203 150.097 101.983 150.385 101.836 150.71C101.688 151.036 101.616 151.39 101.626 151.748C101.62 152.121 101.7 152.49 101.859 152.827C102.008 153.135 102.222 153.407 102.486 153.624C102.752 153.841 103.057 154.007 103.384 154.113C104.086 154.346 104.844 154.346 105.546 154.113C105.874 154.005 106.178 153.837 106.445 153.619C106.708 153.401 106.921 153.129 107.068 152.822C107.227 152.483 107.306 152.113 107.299 151.739C107.305 151.366 107.225 150.996 107.063 150.66C106.915 150.353 106.702 150.082 106.439 149.866C106.172 149.648 105.866 149.481 105.538 149.374C105.192 149.257 104.829 149.197 104.464 149.198H104.458Z" fill="#004E9A"></path><path d="M112.591 147.698C112.592 147.661 112.585 147.625 112.572 147.591C112.559 147.557 112.539 147.526 112.514 147.5C112.391 147.425 112.251 147.386 112.107 147.387V147.178H116.275V147.385C116.141 147.384 116.008 147.411 115.885 147.464C115.858 147.478 115.835 147.499 115.818 147.524C115.802 147.55 115.793 147.579 115.792 147.61C115.852 147.724 115.927 147.83 116.017 147.923C116.168 148.107 116.363 148.338 116.608 148.613C116.852 148.887 117.124 149.198 117.432 149.536C117.739 149.874 118.047 150.217 118.36 150.555C118.674 150.893 118.973 151.217 119.262 151.522C119.55 151.827 119.811 152.091 120.006 152.308V147.689C120.006 147.494 119.885 147.39 119.643 147.379V147.173H122.811V147.379C122.668 147.379 122.527 147.418 122.405 147.492C122.379 147.518 122.359 147.55 122.346 147.584C122.333 147.619 122.326 147.655 122.328 147.692L122.341 155.753C122.341 155.79 122.347 155.826 122.36 155.86C122.373 155.894 122.393 155.925 122.418 155.951C122.541 156.026 122.682 156.065 122.825 156.064V156.273H119.528V156.064C119.637 156.075 119.747 156.057 119.847 156.012C119.871 155.998 119.891 155.978 119.905 155.953C119.919 155.929 119.926 155.902 119.926 155.874C119.921 155.826 119.903 155.781 119.874 155.742C119.804 155.647 119.729 155.555 119.649 155.468C119.534 155.341 119.363 155.158 119.138 154.918C118.913 154.682 118.613 154.369 118.245 153.967C117.877 153.566 117.421 153.075 116.871 152.484C116.322 151.893 115.676 151.168 114.915 150.316V155.748C114.914 155.784 114.92 155.82 114.934 155.854C114.947 155.888 114.967 155.919 114.992 155.946C115.115 156.019 115.255 156.058 115.399 156.058V156.281H112.102V156.075C112.245 156.075 112.386 156.036 112.508 155.962C112.534 155.936 112.554 155.904 112.567 155.87C112.58 155.835 112.587 155.798 112.585 155.762L112.591 147.698Z" fill="#004E9A"></path><path d="M127.639 155.871C127.636 155.896 127.641 155.921 127.652 155.944C127.662 155.967 127.679 155.986 127.699 156.001C127.777 156.038 127.863 156.053 127.949 156.045V156.251H124.886V156.045C124.985 156.031 125.08 155.993 125.16 155.932C125.235 155.852 125.293 155.759 125.331 155.657C125.355 155.599 125.413 155.443 125.504 155.19C125.594 154.937 125.715 154.616 125.866 154.228C126.018 153.841 126.182 153.404 126.366 152.937C126.551 152.47 126.732 151.984 126.916 151.492C127.1 151 127.281 150.522 127.465 150.055C127.65 149.588 127.801 149.17 127.938 148.802L128.273 147.901C128.361 147.67 128.402 147.549 128.402 147.538C128.402 147.481 128.364 147.439 128.29 147.418C128.214 147.393 128.135 147.376 128.056 147.365V147.156H132.57V147.365C132.493 147.373 132.418 147.391 132.345 147.418C132.287 147.442 132.257 147.497 132.257 147.591C132.303 147.744 132.358 147.895 132.422 148.041C132.532 148.316 132.675 148.676 132.848 149.121C133.021 149.566 133.221 150.066 133.449 150.624C133.677 151.182 133.908 151.756 134.153 152.335C134.397 152.915 134.628 153.487 134.856 154.039C135.084 154.591 135.287 155.088 135.472 155.525C135.53 155.674 135.608 155.813 135.705 155.94C135.737 155.975 135.777 156.002 135.82 156.02C135.864 156.038 135.911 156.046 135.958 156.045V156.251H132.548V156.045C132.768 156.045 132.878 155.962 132.878 155.836C132.878 155.836 132.848 155.748 132.79 155.602C132.732 155.457 132.669 155.297 132.6 155.119C132.532 154.94 132.463 154.77 132.4 154.608C132.354 154.502 132.317 154.392 132.287 154.281H128.188C128.073 154.594 127.979 154.847 127.913 155.044C127.847 155.242 127.79 155.396 127.751 155.512L127.663 155.762C127.65 155.797 127.642 155.834 127.639 155.871ZM131.837 152.888L130.152 148.767L128.619 152.888H131.837Z" fill="#004E9A"></path><path d="M147.099 154.108C147.138 154.11 147.178 154.102 147.214 154.085C147.25 154.068 147.281 154.043 147.305 154.011C147.367 153.891 147.403 153.759 147.409 153.624H147.615V156.619H147.407C147.407 156.498 147.372 156.381 147.305 156.281C147.246 156.236 147.173 156.214 147.099 156.22L138.068 156.237V156.028C138.211 156.03 138.352 155.991 138.475 155.915C138.5 155.889 138.52 155.858 138.533 155.824C138.546 155.79 138.552 155.754 138.551 155.718V147.656C138.552 147.619 138.546 147.583 138.532 147.548C138.518 147.514 138.498 147.482 138.472 147.456C138.35 147.382 138.21 147.344 138.068 147.346V147.137H141.64V147.343C141.496 147.344 141.356 147.383 141.233 147.456C141.207 147.482 141.187 147.514 141.174 147.548C141.161 147.583 141.155 147.62 141.156 147.656V154.127L147.099 154.108Z" fill="#004E9A"></path><path d="M8.7479 164.317C8.99329 164.313 9.23837 164.336 9.47873 164.386C9.67391 164.427 9.86004 164.504 10.0282 164.611C10.1832 164.711 10.3085 164.85 10.3909 165.015C10.4809 165.204 10.5242 165.413 10.5173 165.622C10.5284 165.779 10.5051 165.936 10.4491 166.082C10.3931 166.229 10.3057 166.362 10.1931 166.471C9.94082 166.681 9.63577 166.818 9.31113 166.867L10.4321 168.46C10.4633 168.51 10.5126 168.545 10.5695 168.559C10.6179 168.572 10.6677 168.578 10.7178 168.578V168.727H9.14629V168.576C9.1906 168.577 9.23463 168.568 9.27541 168.551C9.31387 168.534 9.33036 168.512 9.33036 168.485C9.3282 168.451 9.31681 168.417 9.29739 168.389C9.26623 168.338 9.2323 168.288 9.19574 168.24L8.28358 166.935H7.08295V168.43C7.08179 168.452 7.08622 168.474 7.09583 168.493C7.10545 168.513 7.11992 168.53 7.13789 168.543C7.19911 168.573 7.2675 168.587 7.33571 168.581V168.732H5.88505V168.581C6.04715 168.581 6.12683 168.529 6.12683 168.427V164.617C6.12683 164.518 6.04441 164.465 5.88231 164.465V164.314L8.7479 164.317ZM8.5336 166.282C8.70239 166.284 8.87097 166.268 9.03638 166.235C9.14972 166.21 9.2577 166.166 9.35509 166.103C9.42811 166.054 9.48611 165.985 9.52269 165.905C9.55533 165.827 9.57214 165.743 9.57214 165.658C9.57214 165.573 9.55533 165.489 9.52269 165.411C9.485 165.33 9.4261 165.262 9.35235 165.213C9.25558 165.149 9.1473 165.105 9.03364 165.084C8.86829 165.05 8.69958 165.035 8.53085 165.04H7.07745V166.284L8.5336 166.282Z" fill="#004E9A"></path><path d="M20.3339 165.202C20.3352 165.175 20.3293 165.148 20.3168 165.123C20.3042 165.099 20.2855 165.079 20.2625 165.064C20.1854 165.028 20.1003 165.012 20.0152 165.018H17.2952V166.059H18.9437C19.0331 166.063 19.1222 166.047 19.2047 166.012C19.2652 165.983 19.2954 165.903 19.2954 165.773H19.4465V167.081H19.2954C19.2954 166.955 19.2652 166.869 19.202 166.834C19.1223 166.793 19.033 166.775 18.9437 166.782H17.2952V167.938H20.0976C20.1708 167.939 20.2424 167.918 20.3037 167.878C20.329 167.86 20.3495 167.836 20.3634 167.808C20.3773 167.78 20.3842 167.749 20.3834 167.718H20.5345V168.867H20.3834C20.3834 168.784 20.3587 168.738 20.3037 168.727C20.2357 168.714 20.1667 168.709 20.0976 168.71H16.188V168.559C16.2263 168.559 16.2632 168.545 16.2924 168.521C16.3079 168.507 16.3198 168.489 16.3275 168.469C16.3351 168.45 16.3381 168.429 16.3364 168.408V164.597C16.3376 164.576 16.334 164.555 16.3259 164.536C16.3178 164.516 16.3054 164.499 16.2897 164.485C16.2612 164.459 16.2237 164.445 16.1853 164.446V164.295H20.0125C20.0985 164.301 20.1844 164.282 20.2597 164.24C20.2827 164.223 20.3011 164.201 20.3136 164.175C20.326 164.149 20.3321 164.12 20.3312 164.092H20.4823V165.191L20.3339 165.202Z" fill="#004E9A"></path><path d="M25.4414 168.551C25.4766 168.547 25.5104 168.535 25.5404 168.516C25.5703 168.497 25.5956 168.471 25.6145 168.441C25.66 168.375 25.7004 168.305 25.7354 168.232L27.2822 164.963C27.3234 164.891 27.3564 164.823 27.3866 164.762C27.4151 164.714 27.4312 164.659 27.4333 164.603C27.4355 164.58 27.4312 164.557 27.4211 164.536C27.4109 164.515 27.3952 164.497 27.3756 164.485C27.3357 164.463 27.2933 164.446 27.2493 164.435V164.284H28.6669V164.435C28.6264 164.448 28.5869 164.463 28.5488 164.482C28.5286 164.494 28.5124 164.513 28.5022 164.534C28.4919 164.555 28.4881 164.579 28.4911 164.603C28.4917 164.649 28.502 164.695 28.5213 164.738C28.5406 164.781 28.5708 164.842 28.6093 164.913L30.3621 168.328C30.3858 168.383 30.4249 168.43 30.4748 168.463C30.528 168.494 30.5831 168.521 30.6396 168.545V168.697H29.1642V168.545C29.1932 168.543 29.2214 168.535 29.2467 168.521C29.2619 168.514 29.2749 168.504 29.2842 168.49C29.2935 168.476 29.2985 168.46 29.2989 168.444C29.2932 168.367 29.2696 168.293 29.2302 168.227L28.9115 167.606H26.8619L26.5624 168.202C26.5179 168.28 26.489 168.366 26.4772 168.455C26.4772 168.515 26.5322 168.548 26.6366 168.545V168.697H25.4469L25.4414 168.551ZM28.6147 166.996L27.9086 165.435L27.1119 166.996H28.6147Z" fill="#004E9A"></path><path d="M39.8793 168.837C39.8793 168.754 39.8518 168.705 39.7996 168.694C39.7317 168.682 39.6626 168.676 39.5936 168.677H35.5988V168.526C35.7691 168.526 35.8515 168.474 35.8515 168.375V164.564C35.8515 164.463 35.7664 164.413 35.5988 164.413V164.262H37.0412V164.413C36.8846 164.413 36.8077 164.463 36.8077 164.564V167.905H39.5936C39.6667 167.909 39.739 167.889 39.7996 167.848C39.8251 167.83 39.8458 167.806 39.8597 167.778C39.8736 167.75 39.8804 167.719 39.8793 167.688H40.0304V168.839L39.8793 168.837Z" fill="#004E9A"></path><path d="M56.0096 165.141C56.0109 165.114 56.0049 165.086 55.9924 165.062C55.9799 165.037 55.9612 165.016 55.9382 165.001C55.8611 164.965 55.7758 164.95 55.6909 164.957H52.971V165.996H54.6194C54.7089 166.001 54.7983 165.985 54.8804 165.949C54.9409 165.92 54.9711 165.84 54.9711 165.71H55.1222V167.021H54.9711C54.9711 166.891 54.9409 166.809 54.8777 166.773C54.7978 166.733 54.7088 166.714 54.6194 166.718H52.971V167.878H55.7734C55.8465 167.881 55.9188 167.861 55.9794 167.82C56.0048 167.802 56.0253 167.777 56.0392 167.749C56.053 167.721 56.0599 167.689 56.0591 167.658H56.2102V168.809H56.0591C56.0591 168.727 56.0316 168.677 55.9767 168.666C55.9096 168.654 55.8415 168.649 55.7734 168.65H51.861V168.499C51.8992 168.499 51.9362 168.485 51.9654 168.46C51.9812 168.446 51.9935 168.429 52.0016 168.409C52.0097 168.39 52.0133 168.369 52.0121 168.348V164.534C52.0139 164.513 52.0107 164.492 52.0025 164.472C51.9944 164.452 51.9817 164.435 51.9654 164.422C51.9362 164.397 51.8992 164.383 51.861 164.383V164.248H55.6882C55.7743 164.256 55.8606 164.237 55.9355 164.193C55.9587 164.177 55.9775 164.155 55.99 164.13C56.0025 164.104 56.0083 164.076 56.0069 164.048H56.158V165.147L56.0096 165.141Z" fill="#004E9A"></path><path d="M61.9909 167.254L62.0733 167.295C62.0717 167.343 62.0841 167.39 62.109 167.43C62.1673 167.515 62.2468 167.583 62.3398 167.628C62.4651 167.697 62.5967 167.754 62.7327 167.798C62.8854 167.849 63.0415 167.89 63.1997 167.919C63.3436 167.948 63.4899 167.963 63.6366 167.966C63.7327 167.966 63.8536 167.966 64.0047 167.944C64.1557 167.93 64.3048 167.9 64.4498 167.856C64.5857 167.815 64.7138 167.752 64.829 167.669C64.8786 167.634 64.9189 167.588 64.9462 167.533C64.9736 167.479 64.9871 167.419 64.9856 167.359C64.9871 167.304 64.9744 167.25 64.9489 167.202C64.9234 167.154 64.8859 167.113 64.84 167.084C64.7202 167.016 64.5888 166.971 64.4526 166.952C64.271 166.92 64.0873 166.902 63.9031 166.897C63.6998 166.897 63.491 166.878 63.2794 166.861C63.0691 166.846 62.8599 166.817 62.653 166.776C62.4601 166.743 62.2743 166.677 62.1035 166.581C61.9448 166.491 61.8123 166.361 61.7189 166.205C61.6121 166.014 61.5607 165.797 61.5705 165.578C61.5706 165.401 61.612 165.226 61.6914 165.067C61.778 164.891 61.9062 164.738 62.065 164.622C62.2566 164.479 62.4726 164.372 62.7025 164.306C62.9956 164.218 63.3005 164.177 63.6064 164.183C63.8661 164.179 64.1256 164.201 64.3811 164.248C64.5982 164.292 64.7878 164.339 64.9471 164.389C65.1065 164.438 65.2411 164.488 65.351 164.531C65.4375 164.571 65.5308 164.593 65.6257 164.597C65.6859 164.603 65.7458 164.585 65.7933 164.548L65.895 164.614L65.318 165.663L65.2329 165.63C65.2257 165.562 65.2021 165.496 65.1642 165.438C65.1043 165.358 65.0285 165.29 64.9416 165.24C64.8263 165.171 64.7038 165.114 64.5762 165.07C64.4285 165.018 64.2769 164.978 64.1229 164.949C63.9626 164.919 63.7998 164.903 63.6366 164.902C63.5088 164.905 63.3812 164.915 63.2547 164.933C63.1329 164.951 63.0132 164.981 62.8975 165.023C62.7966 165.056 62.7032 165.108 62.6228 165.177C62.5893 165.208 62.5627 165.245 62.5447 165.287C62.5267 165.328 62.5177 165.374 62.5184 165.419C62.515 165.477 62.5269 165.536 62.5529 165.588C62.5789 165.641 62.6182 165.686 62.6667 165.718C62.7832 165.795 62.9141 165.846 63.0514 165.869C63.2327 165.905 63.4163 165.927 63.6009 165.935L64.2273 165.977C64.4368 165.993 64.6451 166.023 64.851 166.065C65.0441 166.1 65.2299 166.168 65.4005 166.265C65.5586 166.356 65.6917 166.484 65.7878 166.639C65.8928 166.824 65.9442 167.036 65.9362 167.249C65.9474 167.507 65.8655 167.76 65.7054 167.963C65.55 168.151 65.3536 168.302 65.1312 168.403C64.8963 168.511 64.6461 168.584 64.3894 168.617C64.1427 168.652 63.894 168.67 63.6448 168.672C63.3773 168.677 63.1098 168.66 62.8453 168.62C62.6581 168.594 62.4739 168.548 62.2958 168.485C62.153 168.433 62.0403 168.386 61.9551 168.345C61.8883 168.308 61.8142 168.287 61.7381 168.282C61.7158 168.283 61.6941 168.29 61.675 168.301C61.6558 168.313 61.6398 168.329 61.6282 168.348L61.5101 168.282L61.9909 167.254Z" fill="#004E9A"></path><path d="M73.7774 168.317C73.7774 168.416 73.8406 168.469 73.9615 168.469V168.62H72.6702V168.469C72.7082 168.467 72.7447 168.453 72.7746 168.43C72.7904 168.415 72.8028 168.398 72.8109 168.378C72.819 168.358 72.8226 168.336 72.8213 168.315V164.974H71.4476C71.3959 164.974 71.3454 164.99 71.302 165.018C71.2766 165.035 71.2565 165.059 71.2439 165.087C71.2313 165.115 71.2267 165.147 71.2305 165.177H71.0794V164.001H71.2003C71.197 164.032 71.2019 164.062 71.2145 164.09C71.227 164.118 71.2468 164.143 71.2718 164.161C71.3168 164.187 71.3679 164.201 71.4201 164.202H75.1484C75.1999 164.202 75.2503 164.188 75.294 164.161C75.3192 164.142 75.3391 164.118 75.3517 164.089C75.3642 164.061 75.369 164.029 75.3655 163.998H75.5166V165.174H75.3655C75.3687 165.144 75.3639 165.113 75.3513 165.085C75.3388 165.057 75.319 165.033 75.294 165.015C75.249 164.989 75.1979 164.974 75.1457 164.974H73.7719L73.7774 168.317Z" fill="#004E9A"></path><path d="M80.2422 168.458C80.2767 168.452 80.3098 168.44 80.3391 168.421C80.3685 168.402 80.3935 168.377 80.4125 168.348C80.4584 168.28 80.4988 168.21 80.5334 168.136L82.083 164.869L82.1874 164.666C82.2142 164.617 82.2293 164.562 82.2314 164.507C82.2336 164.484 82.2294 164.461 82.2192 164.441C82.209 164.42 82.1932 164.403 82.1737 164.391C82.1335 164.369 82.0911 164.352 82.0473 164.339V164.188H83.465V164.339C83.4252 164.35 83.3866 164.365 83.3496 164.383C83.3284 164.395 83.3113 164.414 83.3006 164.436C83.2898 164.458 83.2858 164.482 83.2891 164.507C83.2902 164.553 83.3005 164.599 83.3193 164.641C83.3386 164.685 83.3688 164.743 83.4073 164.817L85.1601 168.229C85.182 168.285 85.2215 168.333 85.2728 168.364C85.3263 168.394 85.3813 168.422 85.4376 168.447V168.598H83.9595V168.447C83.9894 168.445 84.0184 168.436 84.0447 168.422C84.0594 168.416 84.0719 168.405 84.0807 168.392C84.0896 168.379 84.0942 168.364 84.0941 168.348C84.0884 168.27 84.0649 168.195 84.0254 168.128L83.7067 167.507H81.6599L81.3577 168.103C81.3132 168.18 81.2843 168.265 81.2725 168.353C81.2725 168.416 81.3274 168.447 81.4346 168.447V168.598H80.2422V168.458ZM83.4045 166.889L82.6957 165.331L81.9154 166.891L83.4045 166.889Z" fill="#004E9A"></path><path d="M92.9052 168.284C92.9052 168.383 92.9684 168.436 93.0893 168.436V168.587H91.8062V168.436C91.8442 168.436 91.8812 168.424 91.9106 168.4C91.9265 168.385 91.9389 168.367 91.9469 168.347C91.955 168.327 91.9586 168.306 91.9573 168.284V164.944H90.5836C90.531 164.944 90.4795 164.959 90.4353 164.988C90.4099 165.005 90.3897 165.029 90.3771 165.057C90.3645 165.085 90.3599 165.116 90.3638 165.147H90.2127V163.974H90.3638C90.3602 164.005 90.3652 164.036 90.3783 164.064C90.3914 164.092 90.4121 164.116 90.438 164.133C90.4817 164.16 90.5322 164.174 90.5836 164.174H94.3119C94.3636 164.174 94.4141 164.158 94.4575 164.13C94.4829 164.113 94.503 164.089 94.5156 164.061C94.5282 164.033 94.5328 164.002 94.529 163.971H94.6801V165.147H94.529C94.5322 165.116 94.5274 165.086 94.5148 165.058C94.5023 165.03 94.4825 165.005 94.4575 164.988C94.4125 164.961 94.3613 164.947 94.3092 164.946H92.9354L92.9052 168.284Z" fill="#004E9A"></path><path d="M104.052 165.073C104.053 165.045 104.047 165.018 104.035 164.993C104.022 164.968 104.003 164.948 103.98 164.933C103.902 164.897 103.816 164.882 103.73 164.889H101.01V165.93H102.659C102.753 165.936 102.847 165.92 102.933 165.883C102.994 165.852 103.024 165.772 103.024 165.644H103.175V166.955H103.024C103.024 166.826 102.994 166.743 102.931 166.707C102.846 166.663 102.751 166.644 102.656 166.652H101.007V167.812H103.813C103.886 167.815 103.959 167.794 104.019 167.751C104.044 167.734 104.065 167.71 104.078 167.682C104.092 167.654 104.098 167.623 104.096 167.592H104.247V168.743H104.096C104.096 168.658 104.068 168.611 104.016 168.6C103.948 168.588 103.879 168.583 103.81 168.584H99.8975V168.433C99.936 168.434 99.9736 168.421 100.002 168.394C100.018 168.381 100.031 168.364 100.039 168.344C100.048 168.324 100.051 168.303 100.049 168.282V164.471C100.05 164.45 100.046 164.429 100.038 164.409C100.03 164.39 100.018 164.372 100.002 164.358C99.9727 164.334 99.9357 164.32 99.8975 164.32V164.169H103.725C103.811 164.176 103.897 164.157 103.972 164.114C103.995 164.096 104.013 164.074 104.026 164.048C104.038 164.022 104.044 163.994 104.043 163.965H104.195V165.064L104.052 165.073Z" fill="#004E9A"></path><path d="M120.561 168.697C120.561 168.614 120.534 168.567 120.481 168.556C120.414 168.542 120.344 168.536 120.275 168.54H116.278V168.389C116.445 168.389 116.531 168.339 116.531 168.238V164.427C116.531 164.325 116.448 164.276 116.281 164.276V164.125H117.726V164.276C117.569 164.276 117.492 164.328 117.492 164.427V167.768H120.278C120.351 167.771 120.424 167.751 120.484 167.71C120.51 167.692 120.53 167.668 120.544 167.64C120.558 167.613 120.565 167.582 120.564 167.551H120.715V168.699L120.561 168.697Z" fill="#004E9A"></path><path d="M129.886 168.68C129.886 168.598 129.859 168.551 129.806 168.54C129.738 168.528 129.669 168.522 129.6 168.524H125.605V168.37C125.773 168.37 125.855 168.32 125.855 168.219V164.408C125.855 164.306 125.77 164.257 125.603 164.257V164.106H127.048V164.257C126.891 164.257 126.812 164.309 126.812 164.408V167.749H129.6C129.674 167.751 129.746 167.729 129.806 167.688C129.832 167.671 129.852 167.647 129.866 167.619C129.879 167.591 129.885 167.56 129.883 167.529H130.034V168.677L129.886 168.68Z" fill="#004E9A"></path><path d="M139.774 167.9H139.727H139.681C139.596 167.92 139.515 167.954 139.442 168.001C139.315 168.07 139.167 168.144 138.964 168.229C138.75 168.32 138.529 168.393 138.304 168.449C138.052 168.512 137.792 168.543 137.532 168.543C137.19 168.544 136.849 168.5 136.518 168.411C136.207 168.328 135.915 168.187 135.656 167.996C135.407 167.811 135.204 167.571 135.062 167.295C134.912 166.991 134.836 166.654 134.842 166.314C134.833 165.989 134.902 165.666 135.042 165.372C135.182 165.078 135.391 164.822 135.65 164.625C135.908 164.431 136.2 164.286 136.51 164.196C136.84 164.099 137.183 164.05 137.527 164.051C137.786 164.048 138.046 164.07 138.301 164.117C138.535 164.16 138.738 164.21 138.911 164.259C139.052 164.297 139.189 164.344 139.324 164.399C139.381 164.431 139.443 164.454 139.508 164.468C139.522 164.468 139.537 164.464 139.549 164.456C139.562 164.448 139.572 164.437 139.579 164.424L139.626 164.358L139.749 164.457L139.098 165.476L139.013 165.416C139.014 165.4 139.014 165.383 139.013 165.367C139.013 165.35 139.013 165.331 139.013 165.309C139.013 165.246 138.947 165.183 138.845 165.119C138.728 165.048 138.602 164.99 138.472 164.946C138.318 164.895 138.161 164.854 138.002 164.823C137.851 164.791 137.697 164.775 137.543 164.773C137.314 164.772 137.086 164.806 136.867 164.875C136.668 164.938 136.481 165.038 136.318 165.169C136.158 165.298 136.028 165.46 135.936 165.644C135.837 165.844 135.788 166.064 135.793 166.287C135.79 166.501 135.836 166.713 135.927 166.906C136.019 167.099 136.153 167.269 136.321 167.402C136.488 167.535 136.679 167.634 136.884 167.696C137.103 167.763 137.331 167.796 137.56 167.795C137.749 167.794 137.938 167.772 138.123 167.732C138.306 167.693 138.485 167.639 138.659 167.57C138.803 167.516 138.94 167.443 139.065 167.353C139.175 167.271 139.23 167.194 139.23 167.119C139.229 167.084 139.216 167.049 139.194 167.021L139.313 166.952L139.862 167.842L139.774 167.9Z" fill="#004E9A"></path><path style="mix-blend-mode:multiply" opacity="0.5" d="M81.4044 57.7076C81.4071 59.291 80.9401 60.8396 80.0624 62.1575C79.1848 63.4754 77.936 64.5033 76.4739 65.1113C75.0119 65.7192 73.4024 65.8798 71.8491 65.5728C70.2958 65.2657 68.8684 64.5049 67.7477 63.3864C66.6269 62.2679 65.8631 60.8422 65.5528 59.2895C65.2426 57.7368 65.3999 56.127 66.0048 54.6637C66.6097 53.2004 67.6351 51.9495 68.9512 51.0691C70.2673 50.1888 71.8149 49.7186 73.3983 49.718C75.5192 49.7166 77.5539 50.5573 79.0552 52.0555C80.5565 53.5537 81.4015 55.5867 81.4044 57.7076Z" fill="url(#paint0_radial_42_116)"></path><path d="M69.9008 50.6109L69.854 50.6329L69.8046 50.6741C69.8046 50.6741 69.8266 50.6741 69.8925 50.6384C69.9585 50.6027 69.909 50.6109 69.9008 50.6109Z" fill="#1C6BBA"></path><path d="M69.7964 50.5697L69.7552 50.5889C69.7552 50.5889 69.7552 50.5889 69.7799 50.5889L69.7964 50.5697Z" fill="#1C6BBA"></path><path d="M69.9887 50.4817C70.0004 50.4845 70.0127 50.4845 70.0244 50.4817L70.0711 50.4597L70.1096 50.4377C70.0331 50.4652 69.9587 50.4982 69.887 50.5366L69.9447 50.5119L69.9887 50.4817Z" fill="#1C6BBA"></path><path d="M69.8651 50.5532L69.9118 50.5312L69.9585 50.512C69.8712 50.5395 69.7888 50.5802 69.714 50.6329C69.7669 50.6139 69.8184 50.591 69.8678 50.5642L69.8651 50.5532Z" fill="#1C6BBA"></path><path d="M69.9942 50.5423V50.5285L70.0162 50.5093C69.9906 50.5209 69.9666 50.5356 69.9447 50.5532C69.9447 50.5532 69.9447 50.5532 69.9447 50.5697L69.9942 50.5423Z" fill="#1C6BBA"></path><path d="M69.6755 50.7784H69.6535C69.6291 50.7905 69.606 50.8053 69.5848 50.8224C69.6146 50.813 69.6432 50.8001 69.67 50.7839C69.67 50.7839 69.681 50.7784 69.6755 50.7784Z" fill="#1C6BBA"></path><path d="M69.7332 50.9076C69.7332 50.9076 69.7332 50.9076 69.7085 50.9076L69.626 50.9241C69.5684 50.9405 69.5144 50.9675 69.4667 51.0038C69.4667 51.0038 69.4859 51.0038 69.4941 51.0038C69.5024 51.0038 69.4941 51.0202 69.4941 51.0257C69.4941 51.0312 69.4145 51.0862 69.3952 51.0972C69.3952 51.0972 69.4172 51.0697 69.4172 51.0505C69.3829 51.0623 69.3518 51.0821 69.3266 51.1082C69.3266 51.1246 69.3266 51.1384 69.343 51.1549C69.3595 51.1713 69.343 51.1549 69.343 51.1713C69.343 51.1878 69.343 51.1961 69.343 51.2071C69.365 51.229 69.5491 51.1219 69.6013 51.0697C69.6013 51.0697 69.6425 50.9955 69.6233 50.9955C69.6009 50.9994 69.5789 51.0049 69.5573 51.012C69.5986 50.9845 69.648 50.9653 69.692 50.9351L69.7332 50.9076Z" fill="#1C6BBA"></path><path d="M69.2029 50.8994C69.2826 50.8637 69.3513 50.806 69.4282 50.7676C69.3485 50.817 69.3485 50.817 69.3458 50.8225L69.6205 50.6686C69.6292 50.664 69.6368 50.6575 69.6425 50.6494C69.4628 50.7374 69.2893 50.8374 69.1232 50.9489C69.1644 50.9489 69.1892 50.9104 69.2221 50.8939L69.2029 50.8994Z" fill="#1C6BBA"></path><path d="M69.2029 51.4681H69.1864C69.1507 51.4956 69.1232 51.5313 69.0848 51.5561C69.0463 51.5808 69.0024 51.6055 68.9996 51.6165H69.0271C69.0518 51.6165 69.0546 51.6165 69.0601 51.6165C69.0656 51.6165 69.0601 51.6357 69.0765 51.6412H69.115C69.1719 51.6358 69.2257 51.6127 69.2688 51.5753L69.2524 51.5039C69.2407 51.4864 69.2231 51.4738 69.2029 51.4681Z" fill="#1C6BBA"></path><path d="M69.3568 51.0065H69.3375C69.2993 51.0168 69.2643 51.0366 69.2359 51.0642H69.2524C69.2524 51.0642 69.2524 51.0642 69.2524 51.0807C69.2524 51.0971 69.2524 51.1081 69.2524 51.1026C69.2826 51.0843 69.3112 51.0631 69.3375 51.0394C69.3623 51.0175 69.3677 51.0065 69.3568 51.0065Z" fill="#1C6BBA"></path><path d="M71.9614 49.9543C71.9048 50.0018 71.8365 50.0331 71.7635 50.0449C71.6645 50.0717 71.5672 50.1048 71.4723 50.1439C71.3954 50.2455 71.5877 50.2785 71.5905 50.2785C72.0685 50.2428 72.074 50.2483 72.1097 50.2785C72.1454 50.3087 72.335 50.5258 72.2608 50.6604C72.2334 50.7153 72.2334 50.7181 72.2334 50.7263C72.2334 50.7346 72.2746 50.7565 72.2856 50.7813C72.2966 50.806 72.2856 50.8609 72.3048 50.8967C72.368 50.8829 72.4174 50.817 72.4944 50.85C72.5107 50.8545 72.5257 50.8627 72.5384 50.8739C72.5511 50.885 72.5611 50.8989 72.5677 50.9145C72.5743 50.93 72.5773 50.9469 72.5765 50.9638C72.5757 50.9807 72.5711 50.9972 72.5631 51.0121C72.5109 51.0725 72.4147 51.0698 72.368 51.1412C72.3329 51.2038 72.3212 51.2768 72.335 51.3472C72.335 51.3775 72.7197 52.0094 72.8845 52.0698C72.7911 50.7538 72.7251 50.1466 72.6345 49.8719C72.7169 50.1219 72.7829 50.6137 72.8845 52.0698C73.3323 52.155 73.3406 52.144 73.3708 52.111C73.4285 51.9609 73.4708 51.8053 73.4972 51.6467C73.4972 51.5863 73.478 51.5231 73.5109 51.4626C73.5439 51.4022 73.5329 51.4324 73.6428 51.3994C73.9972 51.2923 73.9972 51.2923 74.0055 51.2236C74.0137 51.1549 74.0055 51.1165 74.0824 51.0862C74.2363 51.0066 74.4148 50.9956 74.5687 50.9159C74.634 50.8892 74.6973 50.858 74.7583 50.8225C74.7583 50.8225 74.7885 50.8005 74.7583 50.7538C74.7281 50.7071 74.6237 50.6466 74.5742 50.578C74.5247 50.5093 74.544 50.4763 74.522 50.4296C74.5 50.3829 74.5055 50.3582 74.5385 50.3252C74.5715 50.2922 74.5522 50.2647 74.4615 50.2098C74.1676 50.0395 74.1648 50.034 74.1401 49.9955H74.1566C74.0687 49.9131 73.8956 49.979 73.8544 49.8197H73.8241V49.7949H73.673C73.6114 49.7929 73.5496 49.7975 73.489 49.8087C73.423 49.8224 73.3681 49.7784 73.3076 49.7784C73.2472 49.7784 73.0329 49.7784 72.9532 49.7784C72.8158 49.7784 72.8158 49.7784 72.7993 49.7977C72.7237 49.7978 72.6483 49.8051 72.574 49.8197C72.6124 49.8159 72.6511 49.8159 72.6894 49.8197H72.585C72.5503 49.8171 72.5154 49.8171 72.4806 49.8197C72.2688 49.8407 72.0613 49.8935 71.8652 49.9763C71.8652 49.9763 71.9092 49.9543 71.9614 49.9543Z" fill="#1C6BBA"></path><path d="M70.6124 51.4543C70.6307 51.4049 70.6224 51.3829 70.5876 51.3884C70.5876 51.3884 70.486 51.4159 70.4668 51.4626C70.4475 51.5093 70.4997 51.556 70.5162 51.567C70.5327 51.578 70.6124 51.4543 70.6124 51.4543Z" fill="#1C6BBA"></path><path d="M71.335 50.0119L71.2663 50.0366C71.3405 50.0201 71.5767 49.9542 71.6152 49.9432C71.4785 49.9924 71.339 50.0337 71.1976 50.0669C71.1785 50.0692 71.1604 50.0768 71.1454 50.0888C71.1409 50.1173 71.1285 50.144 71.1097 50.1658C71.0382 50.1438 70.8569 50.2509 70.8487 50.2564C70.8404 50.2619 70.8844 50.2564 70.9009 50.2564C70.9386 50.2496 70.9755 50.2385 71.0108 50.2235C70.8761 50.2976 70.8596 50.2784 70.8487 50.2674C70.747 50.2674 70.7415 50.3086 70.7388 50.3279C70.6811 50.3663 70.6041 50.3691 70.5547 50.4213C70.5993 50.4186 70.6435 50.4112 70.6866 50.3993C70.7662 50.3856 70.8349 50.3279 70.9228 50.3471C70.9228 50.3636 70.9228 50.3636 70.8981 50.3773C70.9558 50.3773 71.1399 50.2976 71.1234 50.2537H71.1014C71.1513 50.2114 71.2067 50.1763 71.2663 50.1493C71.4284 50.1108 71.4861 50.0504 71.4888 50.0339C71.584 50.0173 71.6764 49.9877 71.7636 49.946H71.7224L72.085 49.8333L71.9586 49.8498C72.0438 49.8278 72.1317 49.8141 72.2169 49.7921C72.1345 49.7921 71.9971 49.8086 71.9944 49.8086C71.9916 49.8086 71.6619 49.8663 71.5905 49.8938C71.5708 49.9001 71.5497 49.9001 71.53 49.8938C71.4127 49.9112 71.2988 49.9464 71.1921 49.9982C71.1921 49.9982 71.2003 50.0449 71.335 50.0119Z" fill="#1C6BBA"></path><path d="M70.0052 50.5861C70.0007 50.5959 69.9952 50.6051 69.9887 50.6136C69.9747 50.6291 69.9591 50.6429 69.942 50.6548V50.6246C69.9434 50.6201 69.9434 50.6153 69.942 50.6109C69.9177 50.6141 69.8953 50.6258 69.8788 50.6438C69.8413 50.666 69.8018 50.6844 69.7607 50.6988C69.7607 50.6988 69.7606 50.6988 69.7771 50.6988L69.8925 50.6631C69.8596 50.6823 69.7661 50.7345 69.7607 50.7565L69.9008 50.7015C69.9008 50.7015 69.9008 50.7015 69.9804 50.6329C70.0169 50.5967 70.0554 50.5628 70.0958 50.5312C70.1042 50.5261 70.1117 50.5196 70.1178 50.512L69.9969 50.5504L70.0052 50.5861Z" fill="#1C6BBA"></path><path d="M71.2003 51.4599C71.2525 51.4599 71.3652 51.5972 71.3652 51.6C71.3652 51.6027 71.4201 51.6714 71.4476 51.6659C71.5163 51.6522 71.6207 51.3912 71.6234 51.3912C71.6262 51.3822 71.6262 51.3727 71.6234 51.3637L71.1096 51.2483C71.1565 51.2162 71.2073 51.1904 71.2607 51.1714C71.3157 51.1467 71.3432 51.1329 71.3404 51.1192C71.2731 51.0193 71.1774 50.9418 71.0657 50.8966C71.0245 50.8966 70.9833 50.8966 70.9476 50.8966C70.9118 50.8966 70.9118 50.8115 70.8569 50.806C70.7743 50.8174 70.6939 50.8405 70.6179 50.8747C70.5382 50.9049 70.5382 50.9049 70.5244 50.9049C70.5109 50.8576 70.5053 50.8084 70.5079 50.7593C70.4533 50.751 70.3977 50.751 70.3431 50.7593C70.1893 50.795 69.7277 51.1851 69.8156 51.2428C69.955 51.2755 70.1007 51.2678 70.236 51.2208C70.236 51.1961 70.236 51.1796 70.3568 51.1659C70.4777 51.1522 70.4832 51.1274 70.4942 51.1109C70.5276 51.1339 70.5597 51.1587 70.5904 51.1851C70.6289 51.2263 70.6453 51.2813 70.681 51.3225C70.7168 51.3637 70.8267 51.3692 70.8267 51.4681C70.8267 51.4681 70.8074 51.6879 70.5025 51.7786C70.4088 51.792 70.3167 51.815 70.2277 51.8473C70.2132 51.8581 70.2027 51.8733 70.1977 51.8907C70.1928 51.9081 70.1936 51.9266 70.2002 51.9434C70.2167 51.9572 70.2689 51.9627 70.431 51.9105C70.5519 51.8665 70.5519 51.8665 70.769 51.9627C70.7525 51.9819 70.7525 51.9819 70.6646 52.0149C70.8211 52.0825 70.9922 52.1089 71.1618 52.0918C71.1618 52.0918 71.1619 52.0918 71.1399 52.0698C71.1179 52.0478 71.1399 52.0698 70.964 51.9132C71.051 51.914 71.1355 51.9418 71.2058 51.9929C71.2196 51.9929 71.2305 52.0094 71.2388 52.0066C71.247 52.0039 71.3487 51.839 71.3157 51.8033C71.2415 51.7291 71.1097 51.7374 71.0657 51.622C71.0217 51.5066 71.2003 51.4626 71.2003 51.4599Z" fill="#1C6BBA"></path><path d="M69.5244 50.7291C69.5244 50.7291 69.5573 50.7291 69.5793 50.7043L69.5244 50.7291Z" fill="#1C6BBA"></path><path d="M72.3735 51.0175L72.4504 51.001C72.4504 51.001 72.4724 51.001 72.4779 50.9763C72.4807 50.9692 72.4807 50.9614 72.4779 50.9543C72.4779 50.9543 72.4587 50.9406 72.4477 50.9296V50.9131C72.4351 50.9098 72.4218 50.9098 72.4092 50.9131C72.3735 50.9131 72.2746 50.979 72.3295 51.012C72.3434 51.0178 72.3586 51.0197 72.3735 51.0175Z" fill="#1C6BBA"></path><path d="M70.8294 50.7456C70.768 50.7157 70.6993 50.7043 70.6316 50.7126C70.5602 50.7126 70.5821 50.773 70.5986 50.7868C70.6151 50.8005 70.8294 50.7483 70.8294 50.7456Z" fill="#1C6BBA"></path><path d="M70.2772 50.3773L70.2085 50.4076C70.2312 50.4037 70.2545 50.4037 70.2772 50.4076C70.2772 50.4213 70.2579 50.4213 70.2552 50.4323C70.2525 50.4433 70.3184 50.4158 70.3239 50.4131C70.3294 50.4103 70.4146 50.3416 70.4146 50.3279C70.4146 50.3141 70.3981 50.3279 70.3871 50.3279C70.3761 50.3279 70.4145 50.3279 70.4255 50.3004C70.372 50.3181 70.3197 50.3392 70.2689 50.3636C70.2689 50.3636 70.2964 50.3636 70.3102 50.3636C70.3239 50.3636 70.3102 50.3664 70.2772 50.3773Z" fill="#1C6BBA"></path><path d="M69.9777 50.7071C69.9777 50.7071 69.9585 50.7209 69.9777 50.7346C69.9969 50.7483 70.0464 50.7346 70.0876 50.7016C70.1288 50.6687 70.1618 50.6274 70.1398 50.6274C70.0836 50.6493 70.0294 50.676 69.9777 50.7071Z" fill="#1C6BBA"></path><path d="M70.6508 50.3362L70.5574 50.3664L70.4448 50.3966L70.3981 50.4131C70.4566 50.4089 70.5146 50.3988 70.5712 50.3829C70.6014 50.3755 70.6295 50.3614 70.6536 50.3417L70.6508 50.3362Z" fill="#1C6BBA"></path><path d="M70.3898 50.3938C70.4036 50.3938 70.5107 50.3471 70.5437 50.3306C70.5766 50.3141 70.5602 50.3306 70.5602 50.3169C70.5602 50.3169 70.5602 50.3169 70.5464 50.3169H70.5299C70.5052 50.3334 70.4887 50.3609 70.4613 50.3718C70.4338 50.3828 70.3953 50.3746 70.3898 50.3938Z" fill="#1C6BBA"></path><path d="M70.6508 50.229C70.7305 50.1878 70.7305 50.1878 70.7305 50.1851C70.7305 50.1851 70.6536 50.2098 70.6316 50.2208C70.6096 50.2318 70.6124 50.2428 70.6124 50.2428C70.6124 50.2428 70.6206 50.229 70.6508 50.229Z" fill="#1C6BBA"></path><path d="M70.8102 50.1906C70.8283 50.1865 70.8471 50.1865 70.8651 50.1906L70.8102 50.2098C70.7696 50.2209 70.73 50.2356 70.692 50.2538C70.6728 50.2538 70.6701 50.2895 70.692 50.2922C70.714 50.295 70.692 50.2922 70.7525 50.2785C70.8129 50.2648 70.7992 50.2785 70.8239 50.2785C70.8766 50.2547 70.9279 50.2281 70.9778 50.1988C71.0107 50.1988 71.0492 50.1796 71.0822 50.1631H71.0574H71.0767C71.1206 50.1411 71.1206 50.1384 71.1234 50.1329C71.1261 50.1274 71.1234 50.1329 71.1069 50.1329C71.0904 50.1329 71.1316 50.1192 71.1289 50.1027C71.1261 50.0862 71.1536 50.1027 71.1619 50.0752C71.0682 50.1041 70.9764 50.139 70.8871 50.1796H70.9173C70.8943 50.1923 70.8692 50.2007 70.8432 50.2043C70.8087 50.2114 70.7771 50.2286 70.7525 50.2538C70.7746 50.2355 70.794 50.2143 70.8102 50.1906Z" fill="#1C6BBA"></path><path d="M70.1728 50.7098C70.4229 50.693 70.6665 50.6227 70.8871 50.5037C70.9283 50.4625 70.8267 50.457 70.8267 50.457C70.706 50.4838 70.5875 50.5197 70.4722 50.5642C70.4255 50.5834 70.3871 50.5422 70.3981 50.5285H70.4283C70.519 50.5037 70.4723 50.4735 70.464 50.4735C70.4558 50.4735 70.4201 50.4735 70.3953 50.49C70.3706 50.5065 70.3431 50.49 70.3184 50.49H70.2662C70.2421 50.5061 70.2223 50.5278 70.2085 50.5532C70.2202 50.556 70.2325 50.556 70.2442 50.5532C70.2689 50.5532 70.3047 50.534 70.3102 50.5395C70.3157 50.545 70.2799 50.6054 70.2772 50.6081C70.2744 50.6109 70.2112 50.6411 70.1865 50.6713C70.1618 50.7016 70.1563 50.7098 70.1728 50.7098Z" fill="#1C6BBA"></path><path d="M81.4044 57.6224C81.4044 57.3999 81.3796 57.1032 81.3577 56.8806C81.3577 56.8119 81.3384 56.7515 81.3302 56.6938C81.2542 56.4237 81.1991 56.1481 81.1653 55.8696C81.0622 55.5778 80.9751 55.2806 80.9043 54.9794C80.8339 54.7667 80.7485 54.5592 80.6488 54.3585L80.3741 53.809C80.2934 53.7005 80.1938 53.6074 80.0801 53.5342C80.1952 53.6056 80.2951 53.699 80.3741 53.809C80.2669 53.6386 80.1323 53.4051 80.0196 53.2375C79.7847 52.8865 79.521 52.5557 79.2311 52.2484L78.9097 51.9242L78.874 51.8913C78.9201 51.949 78.9707 52.0032 79.0251 52.0534C79.002 52.0394 78.98 52.0238 78.9591 52.0066C78.9948 52.0753 79.0635 52.111 79.1157 52.166H79.102C78.8795 51.9847 78.6899 51.7649 78.4673 51.589C78.5704 51.6706 78.6777 51.7467 78.7888 51.8171C78.6104 51.6334 78.4113 51.4711 78.1953 51.3335C78.1248 51.2981 78.0584 51.2547 77.9975 51.2044H78.0277C78.0057 51.1863 77.9818 51.1706 77.9563 51.1577C77.9039 51.1336 77.8542 51.1042 77.8079 51.0698H77.8409C77.8217 51.0258 77.6239 50.9351 77.6101 50.9324C77.5964 50.9296 77.6101 50.9544 77.6513 50.9928C77.5827 50.9681 77.5497 50.8967 77.481 50.8719C77.481 50.9022 77.5277 50.9187 77.5415 50.9489C77.5552 50.9791 77.5167 51.0038 77.5195 51.0368C77.5668 51.1508 77.6229 51.261 77.6871 51.3665C77.8052 51.5478 77.7997 51.611 77.7997 51.6193C77.7777 51.7869 77.7777 51.7869 77.6843 51.8555C77.6513 51.8803 77.6513 51.8913 77.6706 51.9352C77.6898 51.9792 77.9206 52.5232 78.1486 52.416C78.2228 52.3803 78.1871 52.2594 78.1679 52.2017C78.3505 52.3722 78.5204 52.5559 78.6762 52.7512C78.7119 52.8117 78.7476 52.8693 78.8108 52.8693C78.8265 52.7828 78.8189 52.6937 78.7888 52.6111C78.6981 52.4435 78.7174 52.4243 78.7641 52.3803C78.7641 52.3391 78.7641 52.3254 78.6404 52.2457C78.5168 52.166 78.558 52.1907 78.4481 52.0121C78.4041 51.9435 78.4756 51.8555 78.4124 51.7896C78.3509 51.7337 78.294 51.6731 78.242 51.6083V51.589C78.3452 51.6373 78.4384 51.7044 78.5168 51.7869H78.5003C78.6597 52.1385 78.6597 52.1385 78.808 52.2786C78.9564 52.4188 79.1405 52.383 79.2723 52.5039C79.2505 52.4978 79.2293 52.4896 79.2092 52.4792C79.2092 52.4957 79.2284 52.5094 79.2366 52.5232C79.1623 52.4957 79.0861 52.4737 79.0086 52.4572C79.11 52.5635 79.2019 52.6784 79.2833 52.8007C79.1982 52.8007 79.1927 52.6743 79.102 52.6825V52.6963C79.102 52.6963 79.2064 52.8858 79.2174 52.8996C79.2284 52.9133 79.3026 53.0067 79.2971 53.0479C79.2449 53.0479 79.2449 53.0479 79.2339 53.0479C79.2296 53.0648 79.2241 53.0813 79.2174 53.0974V53.1111C78.9756 53.0946 78.9756 53.0946 78.9729 53.1111L78.9399 53.1304C78.8833 53.1007 78.8219 53.0812 78.7586 53.0727L78.8767 53.0919C78.8291 53.0549 78.7692 53.0372 78.7091 53.0424C78.6789 53.0424 78.6706 53.0424 78.58 52.9408C78.5039 52.8674 78.4545 52.7707 78.4399 52.666C78.4399 52.6276 78.3822 52.4627 78.3382 52.4572C78.2942 52.4517 78.2091 52.4572 78.2283 52.5177C78.3064 52.6722 78.3984 52.8193 78.5031 52.9573C78.5498 53.0095 78.5525 53.0177 78.5525 53.0205C78.5525 53.0232 78.5525 53.0205 78.5113 53.0342L78.4316 53.0479L78.4069 53.0809C78.2778 53.0809 78.2778 53.0809 78.2448 53.1139C78.2588 53.1878 78.279 53.2604 78.3052 53.3309L78.286 53.3694C78.2294 53.3602 78.1714 53.3669 78.1184 53.3886C78.1304 53.4293 78.146 53.4689 78.1651 53.5068C78.1372 53.5258 78.1067 53.5406 78.0745 53.5507C78.0736 53.581 78.0671 53.6108 78.0552 53.6386C77.9849 53.6443 77.915 53.6227 77.8601 53.5782C77.8747 53.6042 77.8912 53.629 77.9096 53.6524V53.6936L77.8244 53.7238C77.8025 53.7067 77.7773 53.6943 77.7503 53.6872C77.7234 53.6801 77.6954 53.6785 77.6678 53.6826L77.6513 53.7211L77.731 53.7897L77.6981 53.8145C77.8577 53.855 77.9964 53.954 78.0864 54.0919C78.1765 54.2298 78.2115 54.3966 78.1843 54.559C77.9096 54.5398 77.6541 54.4601 77.3876 54.4354C77.4025 54.4609 77.42 54.4849 77.4398 54.5068C77.4398 54.5068 77.47 55.2294 77.5607 55.2569C77.536 55.4794 77.5359 55.4794 77.5332 55.4987C77.6341 55.481 77.7373 55.481 77.8382 55.4987C77.8452 55.5426 77.8563 55.5858 77.8711 55.6278L78.308 55.4822C78.4316 55.4657 78.4618 55.3146 78.3959 55.2074C78.4646 54.919 78.4673 54.919 78.6487 54.8475C78.6487 54.614 78.6487 54.614 78.6707 54.5975C78.7531 54.5288 78.819 54.6387 78.8959 54.6387C78.9674 54.5123 79.0278 54.4299 79.1377 54.5261C79.3924 54.8049 79.6197 55.1076 79.8163 55.43C79.863 55.5783 79.8411 55.5811 79.5828 55.6168C79.6444 55.6981 79.7144 55.7727 79.7916 55.8394C79.8136 55.7679 79.7696 55.702 79.7916 55.6305H79.8301C79.863 55.5838 79.874 55.5261 79.9043 55.4767C79.8805 55.4191 79.8674 55.3576 79.8658 55.2954H79.907C79.907 55.3173 79.9427 55.3448 79.9592 55.3668C79.9592 55.3036 79.9592 55.3036 79.7394 55.0536V55.0151C79.6433 54.9712 79.5663 54.9382 79.3053 54.4079C79.3208 54.3864 79.3416 54.3694 79.3657 54.3585L79.9537 55.0481C79.9537 55.0481 79.9537 55.0481 80.1296 55.5536L80.3164 55.9822C80.3191 55.9539 80.3191 55.9254 80.3164 55.897C80.3067 55.7983 80.2874 55.7008 80.2587 55.6058C80.1955 55.2899 80.1955 55.2899 80.2257 55.2651C80.2705 55.2768 80.312 55.2987 80.3469 55.3292C80.3817 55.3598 80.4089 55.398 80.4263 55.441C80.4389 55.4161 80.4499 55.3904 80.4592 55.364H80.5032C80.5389 55.0756 80.3329 54.8145 80.3686 54.5398C80.3926 54.5314 80.4187 54.5314 80.4428 54.5398L80.4263 54.5755C80.4517 54.6081 80.4835 54.6352 80.5197 54.6552C80.5339 54.6971 80.5339 54.7425 80.5197 54.7843C80.5522 54.8299 80.5816 54.8776 80.6076 54.9272C80.7477 54.8475 80.5389 54.7046 80.5801 54.5865C80.6406 54.5865 80.6516 54.5865 80.6708 54.6415L80.6488 54.6799C80.6771 54.7291 80.6958 54.7831 80.7038 54.8393L80.6818 54.8722C80.7807 55.1195 81.0087 55.3118 81.0005 55.6058L80.9648 55.6251C80.8439 55.5454 80.8521 55.2789 80.6571 55.3311C80.654 55.3565 80.6435 55.3804 80.6268 55.3998L80.5499 55.3778C80.5545 55.403 80.567 55.4261 80.5856 55.4437C80.5417 55.4822 80.4812 55.4602 80.4345 55.4849C80.4303 55.5141 80.4303 55.5437 80.4345 55.5729H80.4702C80.4788 55.7867 80.5635 55.9904 80.7093 56.1471L80.7367 56.1196V56.0784C80.7944 56.1278 80.8137 56.213 80.8824 56.2542C80.8913 56.2283 80.8978 56.2017 80.9016 56.1745C80.9206 56.1932 80.943 56.2081 80.9675 56.2185C80.9977 56.768 81.0032 56.8614 80.9428 57.0125C80.8604 57.0125 80.8466 56.9905 80.8219 56.9109C80.7968 56.913 80.7729 56.9225 80.7532 56.9383C80.4785 56.9191 80.5114 56.5317 80.2312 56.529C80.179 56.6196 80.2312 56.7268 80.1845 56.8229L80.1488 56.8394C79.8985 56.6273 79.6592 56.4027 79.4317 56.1663C79.4317 56.1443 79.4317 56.1031 79.4509 56.0811C79.4702 56.0591 79.4839 56.0289 79.4509 55.6992C79.3823 55.6553 79.3713 55.647 79.33 55.6251C79.2751 55.6663 79.2751 55.6663 79.0553 55.6251C79.0347 55.646 79.0163 55.669 79.0003 55.6937C78.7091 55.5811 78.4728 55.8998 78.1761 55.8009H78.1321C78.0497 55.8174 78.0223 55.8229 77.9343 55.7157H77.9179C77.9047 55.7252 77.8927 55.7363 77.8821 55.7487C77.8272 55.8146 77.8821 55.908 77.8162 55.9767C77.7503 56.0454 77.6239 56.0591 77.5634 56.1498C77.5442 56.1745 77.5634 56.224 77.5634 56.257C77.5442 56.6086 77.5442 56.6086 77.4508 56.6526C77.3593 56.7021 77.2752 56.7641 77.2008 56.8367C77.1486 56.9218 76.7612 57.595 76.7612 57.595C76.7474 57.7763 76.8656 57.9274 76.8683 58.1033C76.8711 58.2791 76.6623 58.3203 76.7282 58.4906C76.8271 58.7462 76.9672 58.9852 77.0854 59.2325C77.2158 59.4173 77.3844 59.5719 77.5799 59.6858C77.9233 59.6058 78.2742 59.5625 78.6267 59.5567C78.6405 59.5585 78.6532 59.5654 78.6624 59.5759C78.7256 59.6281 78.6816 59.727 78.7448 59.7819C78.808 59.8369 78.8877 59.8094 78.9564 59.8314C78.9805 59.8732 78.9932 59.9206 78.9932 59.9688C78.9932 60.017 78.9805 60.0644 78.9564 60.1062C79.3901 60.1657 79.8141 60.2821 80.2175 60.4523C79.8135 60.2838 79.3898 60.1674 78.9564 60.1062C78.797 60.4798 78.797 60.4798 78.8218 60.587C78.8947 60.894 78.8506 61.2173 78.6981 61.4936C78.5746 61.7098 78.435 61.9165 78.2805 62.1118C78.1569 62.3096 78.1431 62.5486 78.0305 62.7492C77.5936 63.5295 77.5799 63.5432 77.5112 63.6147C77.4557 63.6672 77.4133 63.7322 77.3876 63.8042C77.4899 63.8168 77.5936 63.8082 77.6924 63.7789C77.7912 63.7495 77.8829 63.7002 77.9618 63.6339L78.3107 63.3894L78.7503 63.0377C78.8492 62.9333 78.9097 62.7987 79.0251 62.6998C79.1405 62.6008 79.2998 62.5322 79.429 62.425C79.6681 62.1613 79.8647 61.8619 80.0114 61.5376C80.1736 61.2418 80.3761 60.9699 80.6131 60.7298C80.818 60.4518 80.9775 60.143 81.0857 59.8149C81.0417 59.8012 81.0417 59.8012 80.962 59.8149C80.9428 59.7902 80.9428 59.7902 80.9813 59.4687C80.9841 59.3494 80.9785 59.2301 80.9648 59.1116C80.9648 58.8039 81.017 58.4961 80.9895 58.1857L80.9071 57.2131C80.9263 57.2433 80.9263 57.2433 80.9455 57.3834C80.9678 57.363 80.9832 57.3361 80.9895 57.3065C81.1901 58.0401 80.9895 58.7764 81.006 59.5045C81.0857 59.4687 81.0857 59.4687 81.1214 59.4742C81.2147 59.31 81.2893 59.1358 81.3439 58.955C81.3439 58.9687 81.3439 58.9852 81.3439 58.9989C81.3439 59.0127 81.3439 58.944 81.3577 58.9192V58.8918L81.3796 58.7214C81.3796 58.6445 81.4016 58.5456 81.4181 58.2818V58.323C81.3906 58.128 81.4071 57.8422 81.4044 57.6224ZM81.3659 58.4714C81.3522 58.4384 81.3522 58.4384 81.3659 58.1637C81.3659 58.2516 81.3659 58.2516 81.3522 58.2901C81.3272 58.0471 81.3272 57.8022 81.3522 57.5593C81.3943 57.8069 81.4091 58.0584 81.3961 58.3093C81.3932 58.3644 81.383 58.4189 81.3659 58.4714Z" fill="#1C6BBA"></path><path d="M81.1791 55.8585C81.1791 55.8585 81.1791 55.8805 81.1791 55.8915L81.2203 56.0701C81.2203 56.1772 81.256 56.2816 81.2752 56.386C81.2391 56.1151 81.1803 55.8476 81.0994 55.5865C81.0829 55.5371 81.0692 55.4904 81.0554 55.4464C81.1489 55.7651 81.1516 55.7789 81.1928 55.9465C81.1866 55.9174 81.182 55.8881 81.1791 55.8585Z" fill="#1C6BBA"></path><path d="M81.0362 55.3502C81.0362 55.3502 81.0362 55.3722 81.0362 55.3804C81.0362 55.342 81.0087 55.3062 81.0005 55.265C81.0005 55.2788 81.0005 55.2925 81.0005 55.3035L80.9043 55.0288L80.8879 54.9875C80.9263 55.0974 80.9703 55.2376 81.0362 55.4381V55.3502Z" fill="#1C6BBA"></path><path d="M81.3384 56.7184C81.3384 56.603 81.3027 56.4904 81.2807 56.375L81.3302 56.6937L81.3384 56.7184Z" fill="#1C6BBA"></path><path d="M76.7722 52.9765C76.7487 53.0312 76.7312 53.0883 76.72 53.1468C76.72 53.1935 76.72 53.2128 76.72 53.232C76.72 53.2512 76.8628 53.2512 76.9507 53.1935C76.9717 53.1782 76.9937 53.1644 77.0167 53.1523C77.0442 53.1386 77.0799 53.1523 77.1018 53.1193C77.1238 53.0864 77.1018 53.0644 77.0854 53.004C77.0768 52.9795 77.0647 52.9564 77.0496 52.9353C77.0405 52.924 77.0355 52.9099 77.0355 52.8954C77.0355 52.8809 77.0405 52.8669 77.0496 52.8556C77.0591 52.8327 77.0591 52.807 77.0496 52.7842C77.0408 52.7573 77.0222 52.7347 76.9974 52.721L76.97 52.7017C76.9425 52.688 76.9123 52.6825 76.8848 52.6715C76.8738 52.6656 76.8636 52.6582 76.8546 52.6495C76.8546 52.6495 76.6678 52.6962 76.7804 52.7594C76.7848 52.7612 76.7894 52.7622 76.7941 52.7622C76.7989 52.7622 76.8035 52.7612 76.8079 52.7594H76.7914C76.7503 52.7755 76.7129 52.7998 76.6815 52.8309C76.6732 52.8395 76.6671 52.85 76.6638 52.8615C76.6604 52.873 76.6599 52.8851 76.6623 52.8968C76.6658 52.9062 76.6714 52.9147 76.6785 52.9218C76.6856 52.9289 76.6941 52.9344 76.7035 52.938C76.7227 52.9765 76.7474 52.96 76.7722 52.9765Z" fill="#1C6BBA"></path><path d="M69.2771 50.861C69.2192 50.8914 69.1632 50.9253 69.1095 50.9626C69.1095 50.9626 69.1342 50.9626 69.2771 50.861Z" fill="#1C6BBA"></path><path d="M80.5746 56.3531L80.5059 56.2652C80.4978 56.2561 80.4874 56.2495 80.4757 56.246C80.4535 56.2428 80.4315 56.2382 80.4098 56.2322L80.3686 56.2185C80.3493 56.2185 80.3438 56.235 80.3686 56.2542C80.425 56.3082 80.4972 56.3429 80.5746 56.3531Z" fill="#1C6BBA"></path><path d="M79.124 55.2788C79.124 55.2953 79.1679 55.2788 79.1734 55.3145C79.1789 55.3502 79.1734 55.364 79.1734 55.3887C79.1734 55.4134 79.1927 55.4134 79.1982 55.4134C79.2227 55.4131 79.2464 55.4041 79.265 55.388C79.2836 55.3719 79.2959 55.3498 79.2998 55.3255C79.3013 55.3173 79.3013 55.309 79.2998 55.3008C79.2998 55.2733 79.2861 55.2458 79.2833 55.2184C79.2806 55.1909 79.2833 55.1579 79.2833 55.1277C79.2833 55.0975 79.2586 55.0755 79.2421 55.0728C79.2196 55.0758 79.198 55.0835 79.1786 55.0953C79.1592 55.1072 79.1425 55.1229 79.1295 55.1414C79.1075 55.1744 79.102 55.2596 79.124 55.2788Z" fill="#1C6BBA"></path><path d="M78.7064 55.2678C78.7197 55.2554 78.7317 55.2416 78.7421 55.2266C78.7421 55.2129 78.7201 55.2019 78.6789 55.1992C78.6377 55.1964 78.5635 55.1992 78.591 55.2349C78.619 55.2588 78.6534 55.2741 78.6899 55.2788L78.7064 55.2678Z" fill="#1C6BBA"></path><path d="M79.1212 54.8997C79.1191 54.904 79.1179 54.9087 79.1179 54.9134C79.1179 54.9182 79.1191 54.9229 79.1212 54.9272C79.1248 54.9351 79.1294 54.9425 79.135 54.9492C79.135 54.9492 79.1982 55.0261 79.2037 55.0288C79.215 54.9689 79.215 54.9074 79.2037 54.8475C79.1965 54.8125 79.1854 54.7784 79.1707 54.7458C79.1679 54.7742 79.1679 54.8027 79.1707 54.831C79.1727 54.8388 79.173 54.847 79.1715 54.855C79.17 54.8629 79.1668 54.8704 79.1621 54.877C79.1574 54.8836 79.1513 54.889 79.1442 54.8929C79.1371 54.8968 79.1293 54.8992 79.1212 54.8997Z" fill="#1C6BBA"></path><path d="M80.8439 56.5481C80.8576 56.5497 80.8714 56.5497 80.8851 56.5481C80.8874 56.517 80.8874 56.4858 80.8851 56.4547C80.8851 56.4547 80.8659 56.4547 80.8549 56.4547C80.8468 56.4571 80.8382 56.4571 80.8301 56.4547C80.8215 56.4467 80.8124 56.4394 80.8027 56.4327C80.8027 56.4327 80.8027 56.4327 80.7889 56.4327C80.7849 56.4519 80.7852 56.4718 80.79 56.4909C80.7947 56.5099 80.8038 56.5276 80.8164 56.5426C80.8164 56.5426 80.8384 56.5481 80.8439 56.5481Z" fill="#1C6BBA"></path><path d="M68.4803 51.4626C68.5243 51.4323 68.5655 51.3911 68.6095 51.3609C68.6534 51.3307 68.7826 51.2538 68.8622 51.1961C68.8815 51.1961 68.8815 51.1961 68.9062 51.1356C68.8798 51.146 68.8548 51.1599 68.832 51.1768C68.8513 51.1576 68.8512 51.1576 68.8567 51.1439C68.7551 51.1878 68.7551 51.1878 68.3073 51.556C68.264 51.5885 68.2292 51.6309 68.2056 51.6796C68.3055 51.6185 68.3978 51.5457 68.4803 51.4626Z" fill="#1C6BBA"></path><path d="M69.1067 51.0367C69.1362 51.03 69.1641 51.0179 69.1892 51.001C69.2567 50.9606 69.3264 50.9239 69.398 50.8911C69.4437 50.8761 69.4887 50.8587 69.5326 50.8389C69.5656 50.8224 69.6947 50.7318 69.6947 50.7318C69.6947 50.7318 69.7222 50.7125 69.7249 50.7071C69.7124 50.7029 69.6989 50.7029 69.6865 50.7071C69.6452 50.729 69.6123 50.7593 69.5738 50.7812C69.6205 50.7345 69.6782 50.6961 69.7249 50.6466C69.7249 50.6466 69.5628 50.729 69.5601 50.751C69.5573 50.773 69.5326 50.8087 69.4117 50.8389C69.4282 50.8197 69.4831 50.8087 69.4612 50.784C69.4392 50.7593 69.1287 50.9433 69.126 50.9873L69.2853 50.9021C69.2689 50.9269 69.2414 50.9351 69.2194 50.9543L69.2606 50.9323C69.2835 50.9202 69.3074 50.9101 69.332 50.9021C69.2613 50.9452 69.1879 50.9837 69.1122 51.0175C69.0958 51.023 69.0958 51.0367 69.1067 51.0367Z" fill="#1C6BBA"></path><path d="M68.1974 51.85C68.2221 51.85 68.2386 51.85 68.2633 51.85C68.2633 51.8802 68.2248 51.8967 68.2111 51.9214C68.3451 51.8752 68.4711 51.8085 68.5847 51.7236C68.607 51.701 68.6331 51.6824 68.6617 51.6687C68.6617 51.6879 68.6617 51.6879 68.6617 51.6934C68.6916 51.7062 68.723 51.7154 68.7551 51.7209C68.8348 51.6934 68.8348 51.6934 68.9117 51.6082C68.9117 51.6082 68.9117 51.6082 68.8293 51.644C68.845 51.6215 68.8655 51.6028 68.8892 51.589C68.9129 51.5753 68.9393 51.5668 68.9666 51.5643C68.9859 51.5643 68.9914 51.5643 68.9969 51.5643C69.0024 51.5643 69.0381 51.5286 69.0298 51.4956C69.0216 51.4626 68.9721 51.4269 68.9941 51.3994C69.0606 51.32 69.1221 51.2365 69.1782 51.1494H69.1535C69.0861 51.2268 69.0116 51.2976 68.9309 51.361C68.9309 51.3225 68.9611 51.3115 68.9721 51.284C68.9387 51.3033 68.9038 51.3198 68.8677 51.3335C68.8677 51.317 68.898 51.306 68.9062 51.2868C68.8581 51.3088 68.8113 51.3336 68.7661 51.361C68.7963 51.317 68.8485 51.2978 68.8815 51.2621C68.8512 51.2621 68.4501 51.5368 68.4584 51.5725H68.4749C68.4749 51.5863 68.4748 51.5863 68.4199 51.6165C68.3649 51.6467 68.3347 51.6742 68.3347 51.6852H68.3512C68.3952 51.6852 68.4309 51.6467 68.4749 51.6357C68.5188 51.6247 68.538 51.6357 68.571 51.6357C68.5207 51.6703 68.465 51.6963 68.4062 51.7126C68.1781 51.7484 68.1589 51.8418 68.1974 51.85Z" fill="#1C6BBA"></path><path d="M70.0382 52.2292C70.0382 52.2127 70.0381 52.2127 70.0134 52.2292C69.9858 52.2334 69.9596 52.2437 69.9365 52.2594C69.9293 52.2699 69.9254 52.2823 69.9254 52.2951C69.9254 52.3078 69.9293 52.3203 69.9365 52.3308C69.953 52.3363 70.0299 52.2539 70.0382 52.2292Z" fill="#1C6BBA"></path><path d="M69.9365 52.0836C69.9365 52.0836 69.9365 52.0836 69.9502 52.0698C69.9557 52.0557 69.9557 52.04 69.9502 52.0259C69.9345 52.0164 69.9198 52.0053 69.9063 51.9929C69.8843 51.9709 69.8733 51.938 69.8458 51.9187C69.8211 51.9022 69.7909 51.905 69.7661 51.8885C69.7414 51.872 69.7496 51.8583 69.7332 51.8473C69.6941 51.8857 69.6591 51.928 69.6288 51.9737L69.5958 52.0204L69.5106 52.1605C69.5628 52.1605 69.5628 52.1605 69.5656 52.1907C69.5683 52.2209 69.5656 52.2237 69.5656 52.2209C69.5656 52.2182 69.5848 52.2209 69.6123 52.1852C69.6639 52.1352 69.7287 52.1009 69.7991 52.0863C69.8266 52.0726 69.8815 52.1001 69.9365 52.0836Z" fill="#1C6BBA"></path><path d="M69.7936 52.1769C69.742 52.1873 69.6921 52.2049 69.6453 52.2291C69.6233 52.2483 69.6205 52.295 69.6315 52.3033C69.6425 52.3115 69.7964 52.2374 69.8238 52.1989C69.8513 52.1604 69.8266 52.1714 69.7936 52.1769Z" fill="#1C6BBA"></path><path d="M69.5134 58.5181C69.4694 58.5346 69.4941 58.6032 69.5134 58.6115C69.5326 58.6197 69.6425 58.639 69.6398 58.5923C69.6281 58.569 69.61 58.5496 69.5875 58.5365C69.5651 58.5233 69.5394 58.5169 69.5134 58.5181Z" fill="#1C6BBA"></path><path d="M77.2887 52.9353H77.3436C77.3255 52.9319 77.3068 52.9319 77.2887 52.9353Z" fill="#1C6BBA"></path><path d="M72.063 53.5259C72.1125 53.46 72.1372 53.416 72.1289 53.394C72.0661 53.4318 72.0111 53.4812 71.9668 53.5397C71.8982 53.6248 71.8487 53.7265 71.78 53.8144C71.7113 53.9023 71.6921 53.8941 71.6591 53.9408C71.6262 53.9875 71.6591 53.9655 71.6591 53.9683C71.6591 53.971 71.6591 53.9683 71.8762 53.9902C71.9772 53.995 72.0775 54.0097 72.1756 54.0342H72.2114C72.2443 54.0342 72.28 54.004 72.313 54.0342C72.3261 54.0557 72.3328 54.0805 72.3323 54.1056C72.3323 54.1276 72.3323 54.1304 72.3515 54.1276C72.3707 54.1249 72.4257 54.0617 72.4284 54.0067C72.4202 53.8966 72.3758 53.7922 72.302 53.71C72.2663 53.6743 72.2663 53.6743 72.1454 53.71C72.107 53.71 72.0987 53.71 72.0905 53.677C72.0822 53.6441 72.0603 53.6084 72.0383 53.5974C72.0163 53.5864 72.0383 53.5974 72.0383 53.5754C72.0457 53.5585 72.0539 53.542 72.063 53.5259Z" fill="#1C6BBA"></path><path d="M76.9233 52.427C76.9233 52.4682 76.8985 52.5066 76.9233 52.5506C76.948 52.5946 76.9617 52.5506 77.0194 52.5094C77.0771 52.4682 77.0606 52.4792 77.0744 52.4874C77.1348 52.5204 77.0744 52.5836 77.0744 52.6303C77.0857 52.6628 77.1058 52.6916 77.1325 52.7134C77.1592 52.7352 77.1913 52.7492 77.2255 52.7539C77.2691 52.7612 77.3116 52.7741 77.3519 52.7924C77.3519 52.8088 77.3519 52.8253 77.3519 52.8391C77.3519 52.8528 77.4233 52.916 77.4453 52.9655C77.4673 53.0149 77.3986 52.9847 77.3519 52.9655C77.3052 52.9462 77.3354 52.9655 77.2804 52.9517C77.3024 53.0149 77.3739 53.0451 77.3876 53.1138C77.4013 53.1825 77.3601 53.1688 77.3107 53.1907C77.2612 53.2127 77.2777 53.2072 77.2859 53.221C77.2942 53.2347 77.3107 53.2539 77.4288 53.2512C77.4782 53.2512 77.5799 53.2512 77.5826 53.2814C77.5854 53.3116 77.5634 53.3116 77.5277 53.3116C77.5173 53.3095 77.5064 53.3101 77.4963 53.3135C77.4861 53.3168 77.4771 53.3229 77.47 53.3309C77.4453 53.3556 77.4398 53.3913 77.4178 53.416C77.3958 53.4408 77.3546 53.4655 77.3271 53.493C77.4074 53.4924 77.4875 53.4841 77.5662 53.4682C77.6788 53.4545 77.7915 53.4682 77.9041 53.4463L78.0964 53.3803C78.0552 53.3419 78.0058 53.3803 77.9618 53.3611C77.9178 53.3419 77.9948 53.2484 77.9618 53.1907C77.9206 53.0863 77.8794 53.0891 77.8464 53.0918C77.8134 53.0946 77.72 52.9902 77.72 52.9902C77.72 52.9902 77.72 52.9902 77.7832 52.9902C77.8464 52.9902 77.8464 53.0122 77.8437 52.9902L77.8134 52.96C77.7183 52.903 77.6266 52.8407 77.5387 52.7731C77.5043 52.7282 77.4647 52.6877 77.4206 52.6523C77.36 52.6145 77.2912 52.5919 77.22 52.5863C77.2694 52.5423 77.3326 52.3253 77.2008 52.3116H77.1321C77.0469 52.3116 77.0332 52.3253 77.0332 52.3116C77.0332 52.2978 77.1046 52.1852 77.0332 52.1797C77.0332 52.1797 76.8683 52.1797 76.8436 52.2429C76.8436 52.2429 76.8436 52.2566 76.8436 52.2621C76.8793 52.3308 76.915 52.372 76.9233 52.427Z" fill="#1C6BBA"></path><path d="M66.1313 54.57C66.1505 54.5205 66.1642 54.4683 66.1835 54.4189C66.2027 54.3694 66.2082 54.3612 66.2192 54.3309C66.2192 54.3309 66.2192 54.3035 66.2192 54.3062C66.1706 54.3903 66.1415 54.4842 66.134 54.581L66.1313 54.57Z" fill="#1C6BBA"></path><path d="M75.8545 51.328C75.8374 51.3027 75.8136 51.2828 75.7858 51.2703H75.7693C75.7203 51.2681 75.6716 51.2617 75.6237 51.251C75.5907 51.2373 75.566 51.2043 75.5276 51.2071C75.4891 51.2098 75.4396 51.2373 75.3929 51.2483C75.3462 51.2593 75.3023 51.2483 75.2583 51.2703C75.2144 51.2922 75.2583 51.3142 75.2308 51.328C75.2034 51.3417 75.1814 51.328 75.1594 51.328C75.1594 51.3664 75.1841 51.4131 75.1429 51.4461C75.0945 51.413 75.051 51.3732 75.0138 51.328C74.9753 51.2565 74.8187 51.2126 74.7748 51.2483C74.7748 51.284 74.8297 51.2785 74.849 51.3032C74.8682 51.328 74.7748 51.3472 74.75 51.3829C74.7253 51.4186 74.816 51.3829 74.8435 51.3829C74.8709 51.3829 75.0468 51.4269 74.9616 51.4983C74.9973 51.5423 75.0468 51.4983 75.088 51.5148C75.1292 51.5313 75.1319 51.545 75.1319 51.5835C75.1319 51.6219 75.1512 51.5835 75.2391 51.5835C75.2701 51.5802 75.3014 51.5802 75.3325 51.5835C75.3737 51.5835 75.4122 51.6027 75.4534 51.6055H75.4726C75.523 51.6021 75.5728 51.5929 75.621 51.578C75.7254 51.5505 75.8957 51.4351 75.8765 51.4021C75.8573 51.3692 75.8518 51.3664 75.8463 51.3444C75.8408 51.3225 75.8408 51.328 75.8545 51.328Z" fill="#1C6BBA"></path><path d="M69.6535 58.3312C69.7002 58.3916 69.986 58.4109 69.9887 58.3779C69.9914 58.3449 69.626 57.9383 69.6233 57.9356C69.5708 57.8999 69.5112 57.876 69.4486 57.8656C69.386 57.8552 69.3218 57.8584 69.2606 57.8751C69.1855 57.8997 69.1169 57.941 69.0601 57.996C69.1225 58.0031 69.1856 57.9886 69.2386 57.9548C69.343 57.8943 69.4145 57.9273 69.4227 57.9548C69.431 57.9823 69.4007 57.9795 69.3678 57.9548C69.3678 58.007 69.4557 58.029 69.5134 58.0427C69.615 58.0674 69.6233 58.0894 69.6453 58.1554C69.6512 58.1847 69.6644 58.2121 69.6837 58.235C69.695 58.2483 69.7043 58.2631 69.7112 58.279C69.7112 58.3147 69.67 58.312 69.6535 58.3312Z" fill="#1C6BBA"></path><path d="M70.1013 58.6802C70.1288 58.6967 70.1013 58.7516 70.148 58.7571C70.1947 58.7626 70.214 58.6637 70.2772 58.6582H70.3101C70.4113 58.6719 70.5131 58.6801 70.6151 58.6829H70.6316C70.6316 58.6829 70.6069 58.6225 70.6151 58.5895C70.6426 58.4851 70.1096 58.4384 70.0656 58.4439H70.0519C70.0519 58.4439 70.0519 58.4439 70.0519 58.4577C70.0745 58.4773 70.0912 58.5029 70.0999 58.5316C70.1087 58.5603 70.1092 58.5908 70.1013 58.6198C70.0651 58.6272 70.0277 58.6272 69.9914 58.6198C69.8815 58.6033 69.8733 58.606 69.8651 58.6198C69.964 58.6445 70.0436 58.6445 70.1013 58.6802Z" fill="#1C6BBA"></path><path d="M71.1729 53.7403C71.1289 53.7595 71.2306 53.809 71.2525 53.82C71.3899 53.8832 71.4394 53.82 71.4394 53.82C71.4394 53.82 71.2223 53.732 71.1729 53.7403Z" fill="#1C6BBA"></path><path d="M79.7696 62.2794C79.6213 62.4744 79.6158 62.4744 79.5169 62.5102C79.418 62.5459 79.4125 62.5761 79.2916 62.7519C79.2549 62.8124 79.2063 62.8647 79.1487 62.9058C78.9836 63.0483 78.8369 63.2107 78.7119 63.3893C78.7778 63.3893 78.7778 63.3893 79.0306 63.1476C79.2339 62.9525 79.4152 62.7327 79.6103 62.5294C79.6103 62.5294 79.6103 62.5294 79.591 62.5624C79.5718 62.5953 79.5911 62.5624 79.6185 62.5321C79.6991 62.4345 79.7691 62.3286 79.8273 62.2162C79.8064 62.2356 79.7871 62.2567 79.7696 62.2794Z" fill="#1C6BBA"></path><path d="M74.6813 60.8617C74.6813 60.8067 74.7445 60.7298 74.6813 60.6941C74.6181 60.6584 74.5824 60.6941 74.5302 60.6941C74.3681 60.6584 74.2555 60.5183 74.1071 60.4715C73.8763 60.4001 73.6373 60.3589 73.401 60.3012C73.2664 60.2518 73.2526 60.0924 73.1702 60.0017C73.0274 59.9111 72.9202 59.76 72.7691 59.6748C72.574 59.5621 72.3323 59.6006 72.1399 59.4825C71.9476 59.3643 71.8817 59.2325 71.7168 59.1528C71.6898 59.1404 71.6611 59.1321 71.6317 59.128C70.8376 59.0099 70.2085 58.9137 70.137 59.5457C69.9008 59.3781 69.2936 59.6446 69.3513 59.2517C69.3724 59.1102 69.3474 58.9657 69.2798 58.8396C69.0958 58.7461 68.9089 58.8396 68.7303 58.8396C68.7935 58.6362 68.7935 58.6363 68.7468 58.5428C68.8032 58.4298 68.8404 58.3082 68.8567 58.1829C68.821 58.1527 68.5105 57.9082 68.4473 58.6033C68.3402 58.6033 68.2715 58.7461 68.1479 58.6747C67.9514 58.5749 67.8016 58.4024 67.7303 58.1939C67.6891 58.0565 67.8044 57.9521 67.8017 57.823C67.8017 57.7406 67.6891 57.7021 67.7165 57.6087C67.7956 57.4586 67.9029 57.3252 68.0325 57.2158C68.1259 57.1444 68.4886 57.2158 68.4913 57.2158L68.5243 57.1883C68.4968 57.1581 68.4556 57.1499 68.4226 57.1224C68.4239 57.1096 68.4239 57.0967 68.4226 57.0839C68.6381 57.0375 68.8566 57.0063 69.0765 56.9905C69.3238 57.1224 69.1754 57.4713 69.4117 57.6087C69.6865 57.312 69.2414 57.0592 69.2908 56.7542C69.3403 56.4493 69.6507 56.3723 69.8211 56.1745L69.7964 56.1471C69.7964 56.1471 69.7964 56.1196 69.7964 56.1086H69.8321C69.8321 56.1086 69.8321 56.0784 69.8321 56.0646H69.7964L69.8513 55.5014C69.8513 55.5838 69.8513 55.8393 69.8513 55.8393C69.8513 55.8393 69.8788 55.8229 69.9008 55.4492C69.9227 55.4904 69.9585 55.5206 69.9667 55.5673C70.0189 55.4794 69.9997 55.364 70.0793 55.2926C70.1959 55.2256 70.316 55.165 70.4393 55.1113C70.4695 54.82 70.4695 54.82 70.6316 54.6662C70.6591 54.6662 70.6591 54.6662 71.1344 54.3914L71.1179 54.4244C71.145 54.4352 71.1739 54.4408 71.2031 54.4409V54.4821C70.9283 54.6772 70.9283 54.6772 70.9283 54.7349C71.1151 54.7349 71.6866 54.4052 71.585 54.1469C71.5053 54.1991 71.5025 54.2953 71.4558 54.3667L71.302 54.3255C71.3319 54.3155 71.3579 54.2963 71.3761 54.2705H71.3597C71.3179 54.2857 71.2722 54.2857 71.2305 54.2705C71.2159 54.2661 71.2035 54.2562 71.1958 54.2429C71.1882 54.2297 71.1859 54.214 71.1893 54.1991C71.1893 54.1991 71.1893 54.1991 71.1893 54.1854C71.1821 54.2023 71.1784 54.2205 71.1784 54.2389C71.1784 54.2574 71.1821 54.2756 71.1893 54.2925C71.1179 54.2596 71.1069 54.2211 71.0794 54.1359C71.0384 54.1276 71.002 54.1041 70.9778 54.07C71.0794 54.0425 71.1509 54.0233 71.1728 53.9216C71.1206 53.8722 71.1206 53.8722 70.4063 54.32C70.8981 53.8062 70.8981 53.8062 71.4036 53.6524C71.519 53.732 72.0355 53.4738 72.1152 53.3309C72.0905 53.2677 72.0905 53.2677 72.1152 53.1771L72.0932 53.1413L71.9696 53.1139H71.9311C71.8454 53.1267 71.7642 53.1607 71.6948 53.2128V53.1798C71.7361 53.1194 71.7553 53.1111 71.9092 53.0534C71.6097 53.0781 71.3212 53.1029 71.0025 53.1358C71.2937 53.1056 71.552 53.0809 71.9092 53.0507C71.9189 53.0478 71.9275 53.0421 71.9339 53.0342C71.9028 52.9931 71.8593 52.9631 71.8097 52.9487C71.7602 52.9344 71.7074 52.9364 71.6591 52.9545C71.6262 52.9545 71.6262 52.9545 71.6069 52.9545C71.5877 52.9545 71.6069 52.8941 71.6069 52.8638C71.6069 52.8336 71.5218 52.8364 71.4915 52.7979C71.4613 52.7594 71.4915 52.7677 71.5108 52.7375C71.53 52.7072 71.5437 52.6908 71.4723 52.5616C71.2882 52.2374 71.2882 52.2374 71.1976 52.4078C71.1838 52.4325 71.2195 52.46 71.1976 52.4874C71.1756 52.5149 71.1261 52.4874 71.1014 52.5232C71.0437 52.6028 71.0437 52.6028 71.0272 52.6056C70.9283 52.6358 70.8596 52.5561 70.7717 52.5369C70.7659 52.4495 70.7912 52.3629 70.8431 52.2924C70.7937 52.2731 70.7415 52.2924 70.6893 52.2924C70.6371 52.2924 70.67 52.2786 70.6536 52.2512C70.6371 52.2237 70.6371 52.2209 70.5134 52.1825C70.4956 52.1764 70.4763 52.1764 70.4585 52.1825C70.3411 52.1915 70.2245 52.209 70.1096 52.2347C70.1288 52.3418 69.9997 52.4352 70.0876 52.5451C70.0711 52.5973 70.0052 52.6166 69.9997 52.677C69.9942 52.7375 70.0684 52.7869 70.0711 52.8556C70.0711 52.8556 70.0711 53.1303 69.92 53.1661C69.8843 53.1661 69.8073 53.199 69.8238 53.2567C69.8115 53.272 69.7967 53.285 69.7799 53.2952C69.7387 53.4545 69.8431 53.6496 69.6617 53.776C69.6068 53.6908 69.5051 53.6661 69.4282 53.6084C69.4452 53.5733 69.454 53.5348 69.454 53.4958C69.454 53.4567 69.4452 53.4182 69.4282 53.3831L69.4722 53.3474V53.3199H69.4254C69.3513 53.2485 69.2606 53.3199 69.1809 53.2924C69.1013 53.265 69.06 53.188 68.9804 53.1606C68.9658 53.1578 68.9509 53.1578 68.9364 53.1606C68.865 53.1468 68.8155 53.199 68.7523 53.2183C68.7303 53.199 68.7303 53.199 68.7029 53.0369C68.7029 52.982 68.7029 52.982 68.56 52.971C68.5298 52.7979 68.9501 52.4874 69.1315 52.3528C69.1095 52.2979 69.049 52.3226 69.0161 52.2951C69.365 52.2319 69.365 52.2319 69.5656 52.0204C69.5205 52.0372 69.472 52.0429 69.4242 52.0372C69.3764 52.0314 69.3307 52.0144 69.2908 51.9874C69.4199 51.9407 69.5875 52.0204 69.6865 51.8693C69.6752 51.8612 69.6618 51.8564 69.648 51.8555C69.648 51.8555 69.7139 51.7759 69.7799 51.8198C70.0079 51.7374 70.0079 51.7374 70.0546 51.6852C70.0702 51.6732 70.0833 51.6583 70.0931 51.6412C70.1178 51.6 70.0766 51.5561 70.0931 51.5148C70.1096 51.4736 70.1618 51.4819 70.1892 51.4517C70.2005 51.4316 70.2097 51.4104 70.2167 51.3885C70.2167 51.3885 70.0216 51.1934 69.9584 51.4681C69.8403 51.5368 69.7579 51.8116 69.615 51.6852C69.615 51.6 69.7991 51.5451 69.7167 51.4599C69.626 51.4956 69.5903 51.5863 69.5244 51.6467C69.5079 51.6 69.5985 51.4791 69.6013 51.4791H69.5134C69.6562 51.2511 69.6562 51.2511 69.6562 51.2236L69.6343 51.2099C69.7139 51.0835 69.7139 51.0835 70.0876 50.8637C70.0659 50.8587 70.0434 50.8587 70.0217 50.8637C69.7194 50.9324 69.3155 51.4956 69.3128 51.5011C69.3113 51.5084 69.3113 51.5158 69.3128 51.5231H69.4062C69.4062 51.5231 69.4062 51.5368 69.4062 51.5423C69.3661 51.5576 69.3297 51.581 69.2991 51.611V51.6275H69.3183C69.2551 51.7374 69.115 51.7759 69.0628 51.9022C69.0133 51.8528 69.0133 51.8528 69.104 51.7539C69.0518 51.7539 69.0518 51.7539 68.8814 51.8748C68.8814 51.8748 68.8155 51.9187 68.6067 51.9077C68.6067 51.8885 68.6067 51.8638 68.5792 51.8418C68.4089 51.8885 68.3594 51.9874 68.2578 52.1852C68.2385 52.133 68.2825 52.0918 68.277 52.0451C68.1863 52.0588 68.1094 52.1358 68.0023 52.1193C68.0435 52.0781 68.1122 52.0643 68.1259 51.9956H68.1094C68.0874 51.9956 68.0819 52.0094 68.0187 51.9956C68.0101 51.9842 67.9999 51.9741 67.9885 51.9654C67.9418 51.9654 67.9171 52.0149 67.8786 52.0396L67.9061 51.9984L67.8402 52.0561C67.8624 52.0109 67.891 51.9693 67.9253 51.9325C67.8154 52.0341 67.8154 52.0341 67.6121 52.2072L67.8127 52.0314C67.6973 52.12 67.588 52.2164 67.4857 52.3198L67.5077 52.2869C67.3978 52.4133 67.2467 52.5809 67.1341 52.7072C66.8732 53.0218 66.6371 53.3562 66.428 53.7073V53.6908C66.3555 53.8373 66.3019 53.9924 66.2686 54.1524L66.2356 54.2486L66.2576 54.2843C66.2176 54.412 66.1864 54.5424 66.1642 54.6744C66.1567 54.731 66.1633 54.7886 66.1834 54.842H66.1477H66.1312C66.1312 54.842 66.1312 54.842 66.1312 54.82C66.1312 54.7981 66.1312 54.7816 66.112 54.7788C66.1019 54.8305 66.1019 54.8837 66.112 54.9354C66.1285 54.9904 66.1697 54.9849 66.1697 54.9821C66.1761 54.98 66.1819 54.9764 66.1866 54.9716C66.1914 54.9668 66.195 54.961 66.1972 54.9547C66.1993 54.9428 66.1993 54.9308 66.1972 54.9189C66.1985 54.9098 66.1985 54.9006 66.1972 54.8915C66.22 54.9454 66.2322 55.0032 66.2329 55.0618L66.167 55.0261C65.9252 55.3283 65.8428 56.8422 66.0049 57.1224C66.0241 57.1224 66.0241 57.1224 66.3758 57.845H66.2934C66.3373 57.9329 66.645 58.334 66.6478 58.3368C66.678 58.2956 66.7055 58.2516 66.5626 58.062C66.4231 57.8513 66.3295 57.6135 66.2879 57.3642C66.338 57.3932 66.3811 57.4329 66.4143 57.4803C66.4476 57.5278 66.47 57.5819 66.4802 57.6389C66.4899 57.705 66.5103 57.769 66.5406 57.8285C66.6038 57.9302 66.6807 58.0208 66.7494 58.117C66.8181 58.2131 66.9857 58.3175 67.0599 58.4577C67.1341 58.5978 67.0901 58.7324 67.211 58.8066C67.2313 58.8174 67.2524 58.8266 67.2742 58.8341C67.3072 58.8478 67.3511 58.8698 67.3868 58.8808L67.766 58.9632C67.8951 58.9934 68.0407 58.9192 68.1561 58.9907C68.4309 59.1555 68.4309 59.1555 68.5463 59.1665H68.5985C69.0518 59.2297 69.2386 59.7902 69.7359 59.771C69.9557 59.4028 70.0931 59.8451 70.1398 60.0457C70.1563 60.1116 70.1563 60.1116 70.0326 60.3836C69.9774 60.5745 69.9542 60.7732 69.9639 60.9716L69.9914 61.021C70.2534 61.3389 70.5332 61.6416 70.8294 61.9277C70.9915 62.0678 71.214 62.098 71.3789 62.2217C71.5317 62.3558 71.6296 62.5418 71.6536 62.7437C71.7943 63.3722 72.0325 63.9748 72.3597 64.5295C72.9257 65.3236 73.4587 65.2329 73.4779 65.2329C72.9504 64.9581 72.9504 64.9581 72.9999 64.7383C72.9285 64.6614 72.9285 64.6614 72.7883 64.2823C72.8103 64.2823 72.8103 64.2823 72.9092 64.2823C72.9092 64.2823 72.9092 64.2823 72.7883 64.1064C72.8818 64.024 72.8818 64.024 72.8735 63.9581L72.8955 63.9443C73.0603 63.9938 73.1153 63.8592 73.0713 63.796L73.0246 63.73C73.3955 63.73 73.5521 62.8206 73.5549 62.8096C73.612 62.7142 73.7003 62.6415 73.8049 62.6036C73.9368 62.5486 73.9395 62.392 74.0329 62.3096C74.0468 62.2949 74.0641 62.284 74.0833 62.2778C74.1025 62.2715 74.123 62.2702 74.1428 62.2739C74.1978 62.2739 74.2005 62.2739 74.2088 62.2299C74.2225 62.1173 74.2088 62.0046 74.2088 61.8892C74.2088 61.826 74.1731 61.7629 74.2088 61.6997C74.2445 61.6365 74.2747 61.6035 74.2417 61.5568C74.2352 61.5464 74.2296 61.5353 74.2253 61.5238C74.3229 61.481 74.4108 61.4188 74.4836 61.3408C74.5564 61.2629 74.6124 61.1709 74.6484 61.0705V61.0568C74.717 60.9249 74.6868 60.9002 74.6813 60.8617ZM73.5604 62.2189C73.5604 62.164 73.5356 61.9854 73.5082 61.6694C73.5247 61.8535 73.5439 62.0376 73.5631 62.2327C73.5631 62.2272 73.5604 62.2244 73.5604 62.2189ZM73.4093 60.499C73.4093 60.499 73.4093 60.5183 73.4093 60.5292V60.499Z" fill="#1C6BBA"></path><path d="M70.8129 58.7214C70.769 58.7488 70.8129 58.8038 70.8761 58.812C70.9311 58.8167 70.9864 58.8092 71.0382 58.7901C71.0382 58.7901 71.0382 58.7681 70.9421 58.7433C70.8459 58.7186 70.8322 58.7159 70.8129 58.7214Z" fill="#1C6BBA"></path><defs><radialGradient id="paint0_radial_42_116" cx="0" cy="0" r="1" gradientUnits="userSpaceOnUse" gradientTransform="translate(73.4002 57.5876) rotate(-0.07) scale(8.18742 8.18742)"><stop offset="0.62" stop-color="#FAFFFF"></stop><stop offset="0.69" stop-color="#F6FBFB"></stop><stop offset="0.75" stop-color="#EAEFEF"></stop><stop offset="0.82" stop-color="#D7DBDB"></stop><stop offset="0.89" stop-color="#BCBEBE"></stop><stop offset="0.95" stop-color="#999A9A"></stop><stop offset="1" stop-color="#7C7C7C"></stop></radialGradient></defs></svg>